<svg width="82" height="82" viewBox="0 0 82 82" fill="none" xmlns="http://www.w3.org/2000/svg">
<path d="M77.5769 47.8355C77.9106 47.9455 78.1603 48.217 78.2217 48.563C78.6205 50.81 79.806 59.5423 75.8677 67.3379C72.074 74.8473 66.2645 77.5738 64.4122 78.28C64.0304 78.4256 63.6175 78.4124 63.2342 78.2709C60.6285 77.309 50.1534 73.2057 47.5544 68.5063C45.0417 63.9629 45.1705 53.0516 45.2712 49.7707C45.2875 49.2384 45.7208 48.8153 46.2512 48.7679C48.3859 48.577 53.8163 47.7113 59.1623 43.7849C60.3049 42.9457 61.7737 42.6229 63.1199 43.0669L77.5769 47.8355Z" fill="#4375B5"/>
<rect x="42" y="20.4534" width="7.21606" height="26.478" rx="2" transform="rotate(90 42 20.4534)" fill="#4375B5"/>
<path d="M29.6094 43.4507C29.6101 44.1217 29.8771 44.7651 30.3516 45.2397C30.8261 45.7142 31.4695 45.9811 32.1406 45.9819C33.3719 45.9793 34.5617 46.4264 35.4865 47.2392C36.4113 48.052 37.0074 49.1746 37.1628 50.396C37.3183 51.6173 37.0223 52.8534 36.3306 53.872C35.6388 54.8905 34.5989 55.6214 33.4062 55.9272V57.3725C33.4062 57.7082 33.2729 58.0301 33.0356 58.2675C32.7982 58.5048 32.4763 58.6382 32.1406 58.6382C31.805 58.6382 31.483 58.5048 31.2457 58.2675C31.0083 58.0301 30.875 57.7082 30.875 57.3725V55.9272C29.791 55.6483 28.8301 55.0176 28.143 54.1339C27.4559 53.2503 27.0814 52.1637 27.0781 51.0444C27.0781 50.7087 27.2115 50.3868 27.4488 50.1495C27.6862 49.9121 28.0081 49.7788 28.3438 49.7788C28.6794 49.7788 29.0013 49.9121 29.2387 50.1495C29.476 50.3868 29.6094 50.7087 29.6094 51.0444C29.6094 51.545 29.7578 52.0344 30.036 52.4507C30.3141 52.867 30.7094 53.1914 31.172 53.383C31.6345 53.5746 32.1434 53.6247 32.6344 53.527C33.1255 53.4293 33.5765 53.1883 33.9305 52.8343C34.2845 52.4803 34.5256 52.0292 34.6232 51.5382C34.7209 51.0472 34.6708 50.5383 34.4792 50.0757C34.2876 49.6132 33.9632 49.2179 33.5469 48.9397C33.1307 48.6616 32.6413 48.5132 32.1406 48.5132C30.9094 48.5158 29.7196 48.0687 28.7948 47.2559C27.87 46.4431 27.2738 45.3205 27.1184 44.0991C26.963 42.8777 27.2589 41.6416 27.9507 40.6231C28.6424 39.6045 29.6824 38.8737 30.875 38.5679V37.1225C30.875 36.7869 31.0083 36.465 31.2457 36.2276C31.483 35.9902 31.805 35.8569 32.1406 35.8569C32.4763 35.8569 32.7982 35.9902 33.0356 36.2276C33.2729 36.465 33.4062 36.7869 33.4062 37.1225V38.5679C34.4903 38.8468 35.4511 39.4775 36.1382 40.3611C36.8253 41.2447 37.1998 42.3313 37.2031 43.4507C37.2031 43.7863 37.0698 44.1082 36.8324 44.3456C36.5951 44.5829 36.2732 44.7163 35.9375 44.7163C35.6018 44.7163 35.2799 44.5829 35.0426 44.3456C34.8052 44.1082 34.6719 43.7863 34.6719 43.4507C34.6719 42.7793 34.4052 42.1355 33.9305 41.6608C33.4558 41.1861 32.812 40.9194 32.1406 40.9194C31.4693 40.9194 30.8255 41.1861 30.3508 41.6608C29.8761 42.1355 29.6094 42.7793 29.6094 43.4507ZM42.2656 70.0288C42.2657 70.195 42.233 70.3596 42.1694 70.5132C42.1058 70.6667 42.0126 70.8063 41.895 70.9238C41.7775 71.0413 41.638 71.1346 41.4844 71.1982C41.3308 71.2617 41.1662 71.2944 41 71.2944H20.75C16.7234 71.2899 12.863 69.6884 10.0158 66.8411C7.16855 63.9939 5.567 60.1335 5.5625 56.1069C5.5625 41.6584 15.888 29.8784 20.4062 25.414C19.7565 25.1274 19.204 24.6583 18.8157 24.0638C18.4275 23.4693 18.2201 22.7749 18.2188 22.0648V20.5396C18.2215 19.7584 18.4742 18.9986 18.9398 18.3713C19.4054 17.744 20.0595 17.2821 20.8065 17.0533C19.1934 14.7751 18.2928 12.0693 18.2188 9.27878C18.2188 3.40672 21.1251 2.95066 22.0156 2.95066C23.0975 2.92935 24.1658 3.19366 25.113 3.71695C25.7161 4.04463 26.3917 4.21628 27.0781 4.21628C27.7646 4.21628 28.4401 4.04463 29.0433 3.71695C29.9982 3.21368 31.0613 2.95066 32.1406 2.95066C33.22 2.95066 34.2831 3.21368 35.238 3.71695C35.8411 4.04463 36.5167 4.21628 37.2031 4.21628C37.8896 4.21628 38.5651 4.04463 39.1683 3.71695C40.1154 3.19366 41.1838 2.92935 42.2656 2.95066C43.1561 2.95066 46.0625 3.40672 46.0625 9.27878C45.9885 12.0693 45.0879 14.7751 43.4748 17.0533C44.2217 17.2821 44.8759 17.744 45.3415 18.3713C45.8071 18.9986 46.0598 19.7584 46.0625 20.5396V22.0648C46.0613 22.7764 45.8532 23.4722 45.4635 24.0676C45.0738 24.6629 44.5194 25.1322 43.8678 25.418C47.4854 29.0141 50.626 33.0599 53.2125 37.4562C53.296 37.6 53.3503 37.7587 53.3723 37.9234C53.3944 38.0881 53.3838 38.2556 53.3412 38.4162C53.2986 38.5768 53.2247 38.7275 53.1238 38.8595C53.023 38.9916 52.8971 39.1025 52.7534 39.186C52.6097 39.2694 52.4509 39.3237 52.2862 39.3458C52.1215 39.3678 51.954 39.3573 51.7934 39.3146C51.6328 39.272 51.4821 39.1981 51.3501 39.0973C51.218 38.9964 51.1071 38.8705 51.0237 38.7268C48.1752 33.9061 44.6368 29.5281 40.5207 25.7319H23.7613C21.4753 27.7983 8.09375 40.5625 8.09375 56.1069C8.09759 59.4624 9.43224 62.6793 11.8049 65.052C14.1776 67.4247 17.3945 68.7593 20.75 68.7632H41C41.1662 68.7631 41.3308 68.7958 41.4844 68.8594C41.638 68.923 41.7775 69.0162 41.895 69.1338C42.0126 69.2513 42.1058 69.3908 42.1694 69.5444C42.233 69.698 42.2657 69.8626 42.2656 70.0288ZM20.75 9.27878C20.8975 12.0859 21.9873 14.7613 23.8432 16.8725H40.4381C42.294 14.7613 43.3838 12.0859 43.5312 9.27878C43.5312 6.66967 42.875 5.48191 42.2656 5.48191C41.5766 5.46008 40.8955 5.63316 40.3004 5.98123C39.3456 6.48451 38.2825 6.74753 37.2031 6.74753C36.1238 6.74753 35.0607 6.48451 34.1058 5.98123C33.5026 5.65355 32.8271 5.48191 32.1406 5.48191C31.4542 5.48191 30.7786 5.65355 30.1755 5.98123C29.2206 6.48451 28.1575 6.74753 27.0781 6.74753C25.9988 6.74753 24.9357 6.48451 23.9808 5.98123C23.3858 5.63316 22.7046 5.46008 22.0156 5.48191C21.4063 5.48191 20.75 6.66967 20.75 9.27878ZM20.75 22.0648C20.7503 22.3659 20.8701 22.6547 21.0831 22.8676C21.296 23.0805 21.5847 23.2003 21.8858 23.2007H42.3954C42.6965 23.2003 42.9853 23.0805 43.1982 22.8676C43.4111 22.6547 43.5309 22.3659 43.5312 22.0648V20.5396C43.5309 20.2385 43.4111 19.9498 43.1982 19.7368C42.9853 19.5239 42.6965 19.4041 42.3954 19.4038H21.8858C21.5847 19.4041 21.296 19.5239 21.0831 19.7368C20.8701 19.9498 20.7503 20.2385 20.75 20.5396V22.0648ZM76.4375 45.9819V57.3725C76.4375 73.0285 59.2823 78.7707 59.1093 78.8264C58.8555 78.9088 58.582 78.9088 58.3282 78.8264C58.1552 78.7707 41 73.0285 41 57.3725V45.9819C41 45.8157 41.0327 45.6511 41.0963 45.4975C41.1598 45.3439 41.2531 45.2044 41.3706 45.0869C41.4881 44.9693 41.6277 44.8761 41.7812 44.8125C41.9348 44.7489 42.0994 44.7162 42.2656 44.7163C51.1312 44.7163 57.8023 38.7762 57.8684 38.7157C58.1018 38.5056 58.4047 38.3894 58.7188 38.3894C59.0328 38.3894 59.3357 38.5056 59.5691 38.7157C59.6352 38.7762 66.3063 44.7163 75.1719 44.7163C75.3381 44.7162 75.5027 44.7489 75.6563 44.8125C75.8098 44.8761 75.9494 44.9693 76.0669 45.0869C76.1844 45.2044 76.2777 45.3439 76.3412 45.4975C76.4048 45.6511 76.4375 45.8157 76.4375 45.9819ZM73.9062 47.2129C68.3714 46.7799 63.0879 44.7216 58.7188 41.2964C54.3496 44.7216 49.0661 46.7799 43.5312 47.2129V57.3725C43.5312 69.9299 56.3006 75.362 58.7188 76.2778C61.1369 75.362 73.9062 69.9299 73.9062 57.3725V47.2129ZM49.4885 56.4777C49.2505 56.244 48.9298 56.1137 48.5961 56.1152C48.2625 56.1167 47.9429 56.2499 47.707 56.4858C47.4711 56.7217 47.3379 57.0413 47.3364 57.3749C47.3349 57.7085 47.4652 58.0293 47.699 58.2673L55.2927 65.8611C55.4102 65.9786 55.5497 66.0719 55.7032 66.1355C55.8568 66.1991 56.0213 66.2319 56.1875 66.2319C56.3537 66.2319 56.5183 66.1991 56.6718 66.1355C56.8254 66.0719 56.9649 65.9786 57.0824 65.8611L69.7386 53.2048C69.9735 52.967 70.1047 52.6459 70.1036 52.3117C70.1026 51.9774 69.9693 51.6572 69.733 51.4208C69.4966 51.1845 69.1764 51.0512 68.8421 51.0502C68.5079 51.0491 68.1868 51.1804 67.949 51.4152L56.1875 63.1766L49.4885 56.4777Z" fill="white"/>
</svg>
