<svg width="106" height="55" viewBox="0 0 106 55" fill="none" xmlns="http://www.w3.org/2000/svg">
<path d="M1.5799 31.0337C1.31008 31.0337 1.10771 31 0.972797 30.9325C0.837886 30.8426 0.77043 30.7189 0.77043 30.5615C0.77043 30.3592 0.860371 30.2355 1.04025 30.1905C1.24262 30.1231 1.46747 30.0444 1.71481 29.9544C2.23197 29.7745 2.68168 29.4597 3.06393 29.01C3.46866 28.5603 3.716 27.987 3.80594 27.2899C3.94086 26.2556 4.07577 24.9852 4.21068 23.4787C4.36808 21.9497 4.52547 20.3195 4.68287 18.5881C4.84027 16.8567 4.97518 15.1479 5.08761 13.4615C5.11009 13.3265 5.12133 13.1579 5.12133 12.9555C5.12133 12.7532 5.12133 12.5396 5.12133 12.3147C5.12133 11.91 5.05388 11.5952 4.91897 11.3703C4.80654 11.123 4.60417 10.9206 4.31186 10.7632C4.04204 10.5833 3.74973 10.4372 3.43494 10.3248C3.12014 10.1898 2.78286 10.0774 2.4231 9.98748C2.15328 9.92002 1.93966 9.83008 1.78227 9.71765C1.62487 9.60523 1.54617 9.45907 1.54617 9.27919C1.54617 9.07682 1.63611 8.94191 1.816 8.87445C1.99588 8.807 2.20949 8.77327 2.45683 8.77327C2.79411 8.77327 3.21008 8.78451 3.70476 8.807C4.19944 8.82948 4.73908 8.85197 5.3237 8.87445C5.9308 8.87445 6.53791 8.8857 7.14501 8.90818C7.7746 8.93067 8.34797 8.94191 8.86513 8.94191C9.04502 8.94191 9.21366 9.00937 9.37105 9.14428C9.52845 9.2567 9.62963 9.39162 9.67461 9.54901C9.832 9.97623 9.97816 10.3922 10.1131 10.7969C10.248 11.1792 10.3941 11.5839 10.5515 12.0112L15.5095 23.8497C15.5545 23.9396 15.6107 23.9958 15.6782 24.0183C15.7681 24.0183 15.8356 23.9621 15.8805 23.8497L20.7036 12.652C20.861 11.865 20.9847 11.2242 21.0746 10.7295C21.1871 10.2348 21.2883 9.84132 21.3782 9.54901C21.4681 9.25671 21.648 9.11055 21.9178 9.11055H23.3681C24.3125 9.06558 25.2906 8.99812 26.3025 8.90818C27.3368 8.79576 28.1463 8.73954 28.7309 8.73954C28.9557 8.73954 29.1469 8.78451 29.3043 8.87445C29.4841 8.94191 29.5741 9.06558 29.5741 9.24546C29.5741 9.44783 29.4954 9.59398 29.338 9.68392C29.2031 9.77387 29.0232 9.85256 28.7983 9.92002C28.6634 9.96499 28.506 10.0324 28.3262 10.1224C28.1463 10.1898 27.9889 10.2573 27.854 10.3248C27.2693 10.5946 26.8309 10.9094 26.5386 11.2691C26.2687 11.6064 26.1563 12.1573 26.2013 12.9218C26.2463 14.5407 26.3025 15.9573 26.3699 17.1715C26.4374 18.3857 26.4936 19.51 26.5386 20.5443C26.606 21.5786 26.6735 22.6579 26.7409 23.7822C26.8309 24.884 26.9208 26.1769 27.0108 27.6609C27.0557 28.2455 27.2918 28.7177 27.7191 29.0775C28.1688 29.4148 28.7534 29.6733 29.4729 29.8532C29.6978 29.9207 29.8889 29.9994 30.0463 30.0893C30.2037 30.1793 30.2824 30.3254 30.2824 30.5278C30.2824 30.6852 30.2149 30.8089 30.08 30.8988C29.9451 30.9887 29.7765 31.0337 29.5741 31.0337C29.0794 31.0337 28.506 31.0112 27.854 30.9663C27.2244 30.9438 26.5948 30.9213 25.9652 30.8988C25.3581 30.8763 24.8297 30.8651 24.38 30.8651C23.9303 30.8651 23.4244 30.8763 22.8622 30.8988C22.3226 30.9213 21.7717 30.9438 21.2096 30.9663C20.6474 31.0112 20.1078 31.0337 19.5906 31.0337C19.3883 31.0337 19.2084 31 19.051 30.9325C18.8936 30.8426 18.8149 30.7189 18.8149 30.5615C18.8149 30.3592 18.8936 30.2018 19.051 30.0893C19.2084 29.9769 19.3995 29.8982 19.6243 29.8532C20.4563 29.6958 21.0297 29.471 21.3445 29.1787C21.6593 28.8639 21.8054 28.358 21.7829 27.6609C21.7155 26.2668 21.6593 24.884 21.6143 23.5124C21.5693 22.1183 21.5244 20.7579 21.4794 19.4313C21.4569 18.0822 21.4119 16.778 21.3445 15.5189C21.3445 15.3615 21.2995 15.294 21.2096 15.3165C21.1421 15.3165 21.0746 15.3952 21.0072 15.5526L14.5652 30.8651C14.4527 31.1799 14.2841 31.3148 14.0592 31.2698C13.8344 31.2248 13.677 31.1124 13.587 30.9325C12.4853 28.3242 11.3273 25.7497 10.1131 23.2088C8.92135 20.668 7.81957 18.1496 6.80773 15.6538C6.74027 15.4514 6.62785 15.3839 6.47045 15.4514C6.33554 15.4964 6.25684 15.6425 6.23436 15.8899C6.1669 17.0141 6.11069 18.2508 6.06572 19.5999C6.02075 20.9266 5.99826 22.2757 5.99826 23.6473C5.99826 24.9964 5.99826 26.2556 5.99826 27.4248C5.99826 28.0544 6.20063 28.5716 6.60536 28.9763C7.0101 29.3586 7.65093 29.6509 8.52785 29.8532C8.75271 29.8982 8.96632 29.9769 9.16869 30.0893C9.37105 30.1793 9.47224 30.3254 9.47224 30.5278C9.47224 30.6852 9.3823 30.8089 9.20241 30.8988C9.02253 30.9887 8.83141 31.0337 8.62904 31.0337C8.02194 31.0337 7.54975 31.0112 7.21247 30.9663C6.87519 30.9438 6.57164 30.9325 6.30181 30.9325C6.03199 30.91 5.66098 30.8988 5.18879 30.8988C4.69411 30.8988 4.18819 30.91 3.67103 30.9325C3.15387 30.955 2.70416 30.9775 2.32191 31C1.93966 31.0225 1.69233 31.0337 1.5799 31.0337ZM37.4145 31.4047C36.8074 31.4047 36.2453 31.2586 35.7281 30.9663C35.211 30.6739 34.795 30.2917 34.4802 29.8195C34.1879 29.3473 34.0417 28.8302 34.0417 28.268C34.0417 27.5035 34.2778 26.8627 34.75 26.3455C35.2447 25.8284 35.9642 25.3674 36.9086 24.9627L39.9104 23.6473C40.3601 23.4449 40.6299 23.265 40.7199 23.1076C40.8323 22.9502 40.8885 22.6579 40.8885 22.2307L40.9222 20.3082C40.9447 19.6786 40.8323 19.184 40.5849 18.8242C40.3376 18.4419 39.9666 18.2508 39.4719 18.2508C39.1796 18.2508 38.8873 18.3183 38.595 18.4532C38.3027 18.5656 38.0778 18.7005 37.9204 18.8579C37.853 18.9479 37.7968 19.0603 37.7518 19.1952C37.7293 19.3076 37.7181 19.4313 37.7181 19.5662C37.7181 19.7011 37.7293 19.8698 37.7518 20.0721C37.7743 20.252 37.7855 20.4094 37.7855 20.5443C37.7855 20.6792 37.6056 20.8591 37.2459 21.084C36.8861 21.2863 36.4701 21.4775 35.9979 21.6573C35.5257 21.8147 35.121 21.8934 34.7837 21.8934C34.6263 21.8934 34.4802 21.826 34.3453 21.6911C34.2328 21.5562 34.1766 21.3875 34.1766 21.1852C34.1766 20.8254 34.3003 20.4769 34.5476 20.1396C34.795 19.7798 35.1997 19.3751 35.7618 18.9254C36.3465 18.4307 36.9873 17.9922 37.6843 17.61C38.3814 17.2277 39.0672 16.9242 39.7417 16.6993C40.4388 16.4745 41.0234 16.3621 41.4956 16.3621C42.7098 16.3621 43.6767 16.7555 44.3962 17.5425C45.1157 18.307 45.453 19.3301 45.408 20.6118L45.2394 27.4248C45.2169 27.942 45.3069 28.3804 45.5092 28.7402C45.7116 29.1 45.9589 29.2799 46.2512 29.2799C46.6785 29.2799 47.0495 29.1337 47.3643 28.8414C47.4317 28.7739 47.4992 28.7402 47.5666 28.7402C47.679 28.7402 47.769 28.7739 47.8364 28.8414C47.9264 28.9088 47.9714 28.9988 47.9714 29.1112C47.9714 29.381 47.769 29.7296 47.3643 30.1568C46.937 30.5615 46.4873 30.8651 46.0151 31.0674C45.5429 31.2923 45.0483 31.4047 44.5311 31.4047C43.2719 31.4047 42.2264 30.7639 41.3944 29.4822H41.327C40.5849 30.1568 39.9104 30.6402 39.3033 30.9325C38.7187 31.2473 38.0891 31.4047 37.4145 31.4047ZM39.4382 29.2124C39.6855 29.2124 39.8879 29.1787 40.0453 29.1112C40.2027 29.0213 40.3601 28.8864 40.5175 28.7065C40.5849 28.6165 40.6412 28.5041 40.6861 28.3692C40.7311 28.2118 40.7536 28.0319 40.7536 27.8296L40.8548 25.4011C40.8548 25.1763 40.821 25.0301 40.7536 24.9627C40.6861 24.8952 40.6074 24.8615 40.5175 24.8615C40.4725 24.8615 40.4163 24.8727 40.3488 24.8952C40.2814 24.9177 40.2027 24.9514 40.1127 24.9964C39.4607 25.3112 38.9772 25.6372 38.6624 25.9745C38.3477 26.2893 38.1903 26.8065 38.1903 27.526C38.1903 28.1781 38.3252 28.6278 38.595 28.8751C38.8648 29.1 39.1459 29.2124 39.4382 29.2124ZM51.376 31.1012C51.2861 31.1012 51.1287 31 50.9038 30.7976C50.7015 30.5728 50.6003 30.3592 50.6003 30.1568C50.6003 30.0219 50.679 29.8195 50.8364 29.5497C51.0163 29.2799 51.2186 28.9988 51.4435 28.7065C51.6683 28.3917 51.8482 28.1219 51.9831 27.897C52.5228 27.0426 53.0062 26.2893 53.4334 25.6372C53.8831 24.9627 54.3104 24.3106 54.7151 23.681C55.1423 23.0289 55.592 22.3207 56.0642 21.5562C56.5364 20.7692 57.0985 19.8473 57.7506 18.7905C57.7956 18.7005 57.8181 18.6106 57.8181 18.5206C57.8181 18.4307 57.6832 18.3857 57.4133 18.3857L55.5583 18.352C55.2435 18.352 54.9624 18.397 54.7151 18.4869C54.4902 18.5769 54.2654 18.7455 54.0405 18.9928C53.9506 19.0828 53.7932 19.2739 53.5684 19.5662C53.366 19.836 53.1524 20.1396 52.9275 20.4769C52.7027 20.8141 52.4891 21.1177 52.2867 21.3875C52.1068 21.6573 51.9719 21.8372 51.882 21.9272C51.747 22.0846 51.5334 22.1183 51.2411 22.0284C50.9488 21.9384 50.8139 21.7923 50.8364 21.5899C50.9038 21.3425 51.005 20.9491 51.1399 20.4094C51.2749 19.8473 51.3985 19.2627 51.5109 18.6556C51.6234 18.026 51.6796 17.4976 51.6796 17.0703C51.6796 16.823 51.7583 16.6206 51.9157 16.4632C52.0956 16.2834 52.2754 16.1934 52.4553 16.1934C52.6352 16.1934 52.8488 16.3058 53.0962 16.5307C53.2086 16.6206 53.411 16.6881 53.7033 16.7331C54.0181 16.7555 54.3553 16.7668 54.7151 16.7668C54.9624 16.7668 55.2098 16.7668 55.4571 16.7668C55.7269 16.7443 55.9405 16.7331 56.0979 16.7331C57.1772 16.7331 58.3465 16.7218 59.6057 16.6993C60.8648 16.6769 62.0565 16.6431 63.1808 16.5982C63.3607 16.5982 63.5068 16.6881 63.6193 16.868C63.7317 17.0254 63.8104 17.2053 63.8554 17.4076C63.9003 17.61 63.8779 17.7786 63.7879 17.9135C63.5181 18.2059 63.282 18.4982 63.0796 18.7905C62.8773 19.0603 62.6412 19.3751 62.3713 19.7349L56.7725 28.7739C56.6826 28.9313 56.6601 29.055 56.705 29.1449C56.7725 29.2349 56.9524 29.2799 57.2447 29.2799H59.3696C59.6844 29.2799 59.9767 29.2236 60.2465 29.1112C60.5163 28.9988 60.7861 28.7964 61.056 28.5041C61.4157 28.1219 61.708 27.7509 61.9329 27.3911C62.1577 27.0088 62.4725 26.458 62.8773 25.7384C63.0347 25.4686 63.2708 25.3674 63.5855 25.4349C63.9003 25.5023 64.0577 25.671 64.0577 25.9408C64.0577 26.0757 64.024 26.323 63.9566 26.6828C63.8891 27.0426 63.7992 27.4473 63.6867 27.897C63.5743 28.3467 63.4506 28.8077 63.3157 29.2799C63.2033 29.752 63.0796 30.1793 62.9447 30.5615C62.8548 30.9213 62.6412 31.1012 62.3039 31.1012C61.7642 31.1012 60.8086 31.0674 59.437 31C58.0654 30.9325 56.3678 30.8988 54.3441 30.8988C53.8269 30.8988 53.276 30.9325 52.6914 31C52.1293 31.0674 51.6908 31.1012 51.376 31.1012ZM71.6642 31.4047C71.0571 31.4047 70.4949 31.2586 69.9778 30.9663C69.4606 30.6739 69.0446 30.2917 68.7299 29.8195C68.4375 29.3473 68.2914 28.8302 68.2914 28.268C68.2914 27.5035 68.5275 26.8627 68.9997 26.3455C69.4944 25.8284 70.2139 25.3674 71.1583 24.9627L74.16 23.6473C74.6098 23.4449 74.8796 23.265 74.9695 23.1076C75.0819 22.9502 75.1382 22.6579 75.1382 22.2307L75.1719 20.3082C75.1944 19.6786 75.0819 19.184 74.8346 18.8242C74.5873 18.4419 74.2163 18.2508 73.7216 18.2508C73.4293 18.2508 73.137 18.3183 72.8447 18.4532C72.5524 18.5656 72.3275 18.7005 72.1701 18.8579C72.1026 18.9479 72.0464 19.0603 72.0015 19.1952C71.979 19.3076 71.9677 19.4313 71.9677 19.5662C71.9677 19.7011 71.979 19.8698 72.0015 20.0721C72.0239 20.252 72.0352 20.4094 72.0352 20.5443C72.0352 20.6792 71.8553 20.8591 71.4955 21.084C71.1358 21.2863 70.7198 21.4775 70.2476 21.6573C69.7754 21.8147 69.3707 21.8934 69.0334 21.8934C68.876 21.8934 68.7299 21.826 68.5949 21.6911C68.4825 21.5562 68.4263 21.3875 68.4263 21.1852C68.4263 20.8254 68.55 20.4769 68.7973 20.1396C69.0446 19.7798 69.4494 19.3751 70.0115 18.9254C70.5961 18.4307 71.237 17.9922 71.934 17.61C72.631 17.2277 73.3169 16.9242 73.9914 16.6993C74.6885 16.4745 75.2731 16.3621 75.7453 16.3621C76.9595 16.3621 77.9263 16.7555 78.6459 17.5425C79.3654 18.307 79.7027 19.3301 79.6577 20.6118L79.4891 27.4248C79.4666 27.942 79.5565 28.3804 79.7589 28.7402C79.9613 29.1 80.2086 29.2799 80.5009 29.2799C80.9281 29.2799 81.2991 29.1337 81.6139 28.8414C81.6814 28.7739 81.7488 28.7402 81.8163 28.7402C81.9287 28.7402 82.0187 28.7739 82.0861 28.8414C82.1761 28.9088 82.221 28.9988 82.221 29.1112C82.221 29.381 82.0187 29.7296 81.6139 30.1568C81.1867 30.5615 80.737 30.8651 80.2648 31.0674C79.7926 31.2923 79.2979 31.4047 78.7808 31.4047C77.5216 31.4047 76.476 30.7639 75.6441 29.4822H75.5766C74.8346 30.1568 74.16 30.6402 73.5529 30.9325C72.9683 31.2473 72.3387 31.4047 71.6642 31.4047ZM73.6879 29.2124C73.9352 29.2124 74.1376 29.1787 74.295 29.1112C74.4524 29.0213 74.6098 28.8864 74.7672 28.7065C74.8346 28.6165 74.8908 28.5041 74.9358 28.3692C74.9808 28.2118 75.0032 28.0319 75.0032 27.8296L75.1044 25.4011C75.1044 25.1763 75.0707 25.0301 75.0032 24.9627C74.9358 24.8952 74.8571 24.8615 74.7672 24.8615C74.7222 24.8615 74.666 24.8727 74.5985 24.8952C74.5311 24.9177 74.4524 24.9514 74.3624 24.9964C73.7103 25.3112 73.2269 25.6372 72.9121 25.9745C72.5973 26.2893 72.4399 26.8065 72.4399 27.526C72.4399 28.1781 72.5748 28.6278 72.8447 28.8751C73.1145 29.1 73.3955 29.2124 73.6879 29.2124ZM86.1833 31.0337C86.0259 31.0337 85.8685 31 85.7111 30.9325C85.5762 30.8426 85.5087 30.7189 85.5087 30.5615C85.5087 30.3816 85.5874 30.2467 85.7448 30.1568C85.9022 30.0444 86.0821 29.9544 86.2844 29.887C86.6217 29.7745 86.914 29.6509 87.1614 29.516C87.4312 29.3586 87.5661 29.055 87.5661 28.6053V20.8816C87.5661 20.3869 87.4874 19.9709 87.33 19.6337C87.1951 19.2964 86.9253 19.0828 86.5205 18.9928C86.4306 18.9704 86.3407 18.9141 86.2507 18.8242C86.1833 18.7343 86.1495 18.5881 86.1495 18.3857C86.1495 18.0709 86.262 17.8798 86.4868 17.8124C87.2513 17.6325 88.0833 17.3964 88.9827 17.1041C89.9046 16.7893 90.6916 16.4632 91.3436 16.126C91.4336 16.081 91.5348 16.0248 91.6472 15.9573C91.7596 15.8899 91.8608 15.8561 91.9507 15.8561C92.0856 15.8561 92.1643 15.9011 92.1868 15.991C92.2318 16.0585 92.2543 16.1484 92.2543 16.2609C92.2543 16.4408 92.2206 16.7331 92.1531 17.1378C92.1081 17.52 92.0856 17.8686 92.0856 18.1834C92.0856 18.2733 92.0856 18.3745 92.0856 18.4869C92.1081 18.5993 92.1306 18.6668 92.1531 18.6893C92.9176 17.9473 93.6933 17.3739 94.4803 16.9692C95.2673 16.5644 96.178 16.3621 97.2123 16.3621C98.3815 16.3621 99.3596 16.8005 100.147 17.6774C100.956 18.5319 101.361 19.7011 101.361 21.1852V28.6053C101.361 29.055 101.485 29.3586 101.732 29.516C102.002 29.6509 102.305 29.7745 102.642 29.887C102.822 29.9544 102.98 30.0444 103.115 30.1568C103.25 30.2467 103.317 30.3816 103.317 30.5615C103.317 30.7189 103.25 30.8426 103.115 30.9325C103.002 31 102.879 31.0337 102.744 31.0337C102.294 31.0337 101.867 31.0112 101.462 30.9663C101.08 30.9438 100.698 30.9213 100.315 30.8988C99.9555 30.8763 99.5733 30.8651 99.1685 30.8651C98.7863 30.8651 98.404 30.8763 98.0218 30.8988C97.6395 30.9213 97.2573 30.9438 96.875 30.9663C96.4928 31.0112 96.0768 31.0337 95.6271 31.0337C95.4922 31.0337 95.3573 31 95.2223 30.9325C95.1099 30.8426 95.0537 30.7189 95.0537 30.5615C95.0537 30.3816 95.1212 30.2467 95.2561 30.1568C95.391 30.0444 95.5484 29.9544 95.7283 29.887C96.0655 29.7745 96.3466 29.6509 96.5715 29.516C96.7963 29.3586 96.9087 29.055 96.9087 28.6053V21.8934C96.9087 21.039 96.7064 20.3757 96.3016 19.9035C95.9194 19.4088 95.4022 19.1502 94.7502 19.1277C94.2555 19.1277 93.817 19.2064 93.4348 19.3638C93.0525 19.5212 92.659 19.7349 92.2543 20.0047C92.1643 20.0946 92.0969 20.1958 92.0519 20.3082C92.007 20.4207 91.9845 20.5331 91.9845 20.6455V28.6053C91.9845 29.055 92.1081 29.3586 92.3555 29.516C92.6028 29.6509 92.8839 29.7745 93.1987 29.887C93.6484 30.0219 93.8732 30.2467 93.8732 30.5615C93.8732 30.6964 93.817 30.8089 93.7046 30.8988C93.5922 30.9887 93.4573 31.0337 93.2999 31.0337C92.8501 31.0337 92.4342 31.0112 92.0519 30.9663C91.6697 30.9438 91.3099 30.9213 90.9726 30.8988C90.6353 30.8763 90.2643 30.8651 89.8596 30.8651C89.4774 30.8651 89.0839 30.8763 88.6791 30.8988C88.2969 30.9213 87.8921 30.9438 87.4649 30.9663C87.0602 31.0112 86.633 31.0337 86.1833 31.0337Z" fill="white"/>
<path d="M34.069 15.3014C32.417 15.3014 31.591 14.9567 31.591 14.2674C31.591 14.0297 31.692 13.7979 31.894 13.5721C32.0961 13.3463 32.2981 13.2334 32.5002 13.2334C32.6428 13.2334 32.7735 13.269 32.8924 13.3403C33.0112 13.4116 33.1301 13.5186 33.2489 13.6612C33.4748 13.9227 33.6411 14.1366 33.7481 14.303C33.867 14.4694 33.9977 14.5526 34.1403 14.5526C34.4969 14.5526 34.7702 14.3208 34.9604 13.8573C35.1505 13.4057 35.2456 12.6569 35.2456 11.6111V1.91289C35.2456 1.52068 35.1684 1.24733 35.0139 1.09282C34.8594 0.938315 34.5444 0.80758 34.069 0.700615C33.8194 0.64119 33.6946 0.516397 33.6946 0.326236C33.6946 0.243041 33.7303 0.177674 33.8016 0.130134C33.8848 0.0825936 33.968 0.0588235 34.0512 0.0588235C34.3245 0.0588235 34.6098 0.064766 34.9069 0.0766508C35.2159 0.0885357 35.513 0.106363 35.7983 0.130134C36.0954 0.142019 36.3688 0.147961 36.6183 0.147961C36.856 0.147961 37.1175 0.142019 37.4028 0.130134C37.6999 0.118249 38.0029 0.106364 38.312 0.0944781C38.6329 0.0825933 38.924 0.0766508 39.1855 0.0766508C39.2925 0.0766508 39.3697 0.100421 39.4173 0.147961C39.4767 0.183616 39.5064 0.243041 39.5064 0.326236C39.5064 0.445086 39.4707 0.528281 39.3994 0.575821C39.34 0.623362 39.2509 0.664959 39.132 0.700615C38.6566 0.83135 38.3476 0.979912 38.205 1.1463C38.0624 1.30081 37.9911 1.56228 37.9911 1.93071V10.2027C37.9911 10.5236 37.9257 10.8801 37.795 11.2723C37.6761 11.6645 37.5038 12.0627 37.278 12.4668C37.064 12.8828 36.8263 13.269 36.5649 13.6256C36.2083 14.0891 35.8102 14.4813 35.3704 14.8022C34.9426 15.135 34.5088 15.3014 34.069 15.3014Z" fill="white"/>
<path d="M41.6549 11.9854C41.334 11.9854 41.0369 11.9082 40.7635 11.7537C40.4902 11.5992 40.2703 11.3971 40.1039 11.1475C39.9494 10.898 39.8721 10.6246 39.8721 10.3275C39.8721 9.92339 39.9969 9.58467 40.2465 9.31131C40.508 9.03795 40.8883 8.79431 41.3875 8.58038L42.9741 7.88511C43.2118 7.77814 43.3545 7.68306 43.402 7.59987C43.4614 7.51667 43.4911 7.36217 43.4911 7.13635L43.509 6.12018C43.5208 5.7874 43.4614 5.52593 43.3307 5.33577C43.1999 5.13373 43.0038 5.0327 42.7424 5.0327C42.5879 5.0327 42.4334 5.06836 42.2789 5.13967C42.1244 5.19909 42.0055 5.2704 41.9223 5.3536C41.8867 5.40114 41.8569 5.46056 41.8332 5.53187C41.8213 5.5913 41.8153 5.65667 41.8153 5.72798C41.8153 5.79929 41.8213 5.88842 41.8332 5.99539C41.8451 6.09047 41.851 6.17366 41.851 6.24497C41.851 6.31628 41.7559 6.41137 41.5658 6.53022C41.3756 6.63718 41.1557 6.7382 40.9061 6.83328C40.6566 6.91648 40.4426 6.95808 40.2643 6.95808C40.1812 6.95808 40.1039 6.92242 40.0326 6.85111C39.9732 6.7798 39.9435 6.69066 39.9435 6.5837C39.9435 6.39354 40.0088 6.20932 40.1396 6.03104C40.2703 5.84088 40.4842 5.62695 40.7813 5.38925C41.0904 5.12778 41.4291 4.89603 41.7975 4.69398C42.166 4.49193 42.5284 4.33149 42.885 4.21264C43.2534 4.09379 43.5624 4.03436 43.812 4.03436C44.4538 4.03436 44.9649 4.24235 45.3452 4.65833C45.7255 5.06242 45.9038 5.60318 45.88 6.28063L45.7909 9.88179C45.779 10.1551 45.8265 10.3869 45.9335 10.5771C46.0405 10.7672 46.1712 10.8623 46.3257 10.8623C46.5515 10.8623 46.7476 10.7851 46.914 10.6305C46.9497 10.5949 46.9853 10.5771 47.021 10.5771C47.0804 10.5771 47.1279 10.5949 47.1636 10.6305C47.2111 10.6662 47.2349 10.7137 47.2349 10.7732C47.2349 10.9158 47.1279 11.1 46.914 11.3258C46.6882 11.5398 46.4505 11.7002 46.2009 11.8072C45.9513 11.926 45.6899 11.9854 45.4165 11.9854C44.7509 11.9854 44.1983 11.6467 43.7585 10.9693H43.7229C43.3307 11.3258 42.9741 11.5813 42.6532 11.7359C42.3442 11.9022 42.0114 11.9854 41.6549 11.9854ZM42.7245 10.8266C42.8553 10.8266 42.9622 10.8088 43.0454 10.7732C43.1286 10.7256 43.2118 10.6543 43.295 10.5592C43.3307 10.5117 43.3604 10.4523 43.3842 10.381C43.4079 10.2978 43.4198 10.2027 43.4198 10.0957L43.4733 8.81214C43.4733 8.69329 43.4555 8.61604 43.4198 8.58038C43.3842 8.54473 43.3426 8.5269 43.295 8.5269C43.2713 8.5269 43.2415 8.53284 43.2059 8.54473C43.1702 8.55661 43.1286 8.57444 43.0811 8.59821C42.7364 8.7646 42.4809 8.93693 42.3145 9.11521C42.1481 9.2816 42.0649 9.55495 42.0649 9.93527C42.0649 10.2799 42.1362 10.5176 42.2789 10.6484C42.4215 10.7672 42.57 10.8266 42.7245 10.8266Z" fill="white"/>
<path d="M47.903 11.7893C47.8198 11.7893 47.7366 11.7715 47.6534 11.7359C47.5821 11.6883 47.5465 11.6229 47.5465 11.5398C47.5465 11.4447 47.5881 11.3734 47.6713 11.3258C47.7545 11.2664 47.8495 11.2189 47.9565 11.1832C48.1348 11.1238 48.2893 11.0584 48.42 10.9871C48.5626 10.9039 48.634 10.7435 48.634 10.5058V6.42325C48.634 6.16178 48.5924 5.94191 48.5092 5.76363C48.4379 5.58536 48.2952 5.47245 48.0813 5.42491C48.0338 5.41302 47.9862 5.38331 47.9387 5.33577C47.903 5.28823 47.8852 5.21098 47.8852 5.10401C47.8852 4.93762 47.9446 4.8366 48.0635 4.80095C48.4676 4.70587 48.9073 4.58107 49.3827 4.42657C49.87 4.26018 50.286 4.08784 50.6306 3.90957C50.6782 3.8858 50.7317 3.85609 50.7911 3.82043C50.8505 3.78478 50.904 3.76695 50.9515 3.76695C51.0228 3.76695 51.0644 3.79072 51.0763 3.83826C51.1001 3.87391 51.112 3.92145 51.112 3.98088C51.112 4.07596 51.0942 4.23046 51.0585 4.4444C51.0347 4.64644 51.0228 4.83066 51.0228 4.99705C51.0228 5.04459 51.0228 5.09807 51.0228 5.1575C51.0347 5.21692 51.0466 5.25258 51.0585 5.26446C51.4626 4.87226 51.8726 4.56919 52.2886 4.35526C52.7046 4.14133 53.1859 4.03436 53.7326 4.03436C54.3506 4.03436 54.8676 4.26612 55.2836 4.72964C55.7115 5.18127 55.9254 5.79929 55.9254 6.5837V10.5058C55.9254 10.7435 55.9908 10.9039 56.1215 10.9871C56.2641 11.0584 56.4246 11.1238 56.6029 11.1832C56.6979 11.2189 56.7811 11.2664 56.8524 11.3258C56.9238 11.3734 56.9594 11.4447 56.9594 11.5398C56.9594 11.6229 56.9238 11.6883 56.8524 11.7359C56.793 11.7715 56.7277 11.7893 56.6563 11.7893C56.4186 11.7893 56.1928 11.7775 55.9789 11.7537C55.7769 11.7418 55.5748 11.7299 55.3728 11.718C55.1826 11.7061 54.9806 11.7002 54.7666 11.7002C54.5646 11.7002 54.3625 11.7061 54.1605 11.718C53.9584 11.7299 53.7564 11.7418 53.5544 11.7537C53.3523 11.7775 53.1324 11.7893 52.8947 11.7893C52.8234 11.7893 52.7521 11.7715 52.6808 11.7359C52.6214 11.6883 52.5917 11.6229 52.5917 11.5398C52.5917 11.4447 52.6273 11.3734 52.6986 11.3258C52.7699 11.2664 52.8531 11.2189 52.9482 11.1832C53.1265 11.1238 53.2751 11.0584 53.3939 10.9871C53.5128 10.9039 53.5722 10.7435 53.5722 10.5058V6.95808C53.5722 6.50645 53.4652 6.15584 53.2513 5.90625C53.0492 5.64478 52.7759 5.5081 52.4312 5.49622C52.1697 5.49622 51.938 5.53782 51.7359 5.62101C51.5339 5.70421 51.3259 5.81711 51.112 5.95973C51.0644 6.00728 51.0288 6.06076 51.005 6.12018C50.9812 6.17961 50.9694 6.23903 50.9694 6.29846V10.5058C50.9694 10.7435 51.0347 10.9039 51.1655 10.9871C51.2962 11.0584 51.4448 11.1238 51.6112 11.1832C51.8489 11.2545 51.9677 11.3734 51.9677 11.5398C51.9677 11.6111 51.938 11.6705 51.8786 11.718C51.8191 11.7656 51.7478 11.7893 51.6646 11.7893C51.4269 11.7893 51.2071 11.7775 51.005 11.7537C50.803 11.7418 50.6128 11.7299 50.4345 11.718C50.2563 11.7061 50.0602 11.7002 49.8462 11.7002C49.6442 11.7002 49.4362 11.7061 49.2223 11.718C49.0202 11.7299 48.8063 11.7418 48.5805 11.7537C48.3665 11.7775 48.1407 11.7893 47.903 11.7893Z" fill="white"/>
<path d="M62.2847 11.7893C62.1421 11.7893 62.0351 11.7715 61.9638 11.7359C61.8925 11.6883 61.8568 11.6229 61.8568 11.5398C61.8568 11.4328 61.9044 11.3674 61.9994 11.3436C62.1064 11.308 62.2253 11.2664 62.356 11.2189C62.6294 11.1238 62.8671 10.9574 63.0691 10.7197C63.283 10.482 63.4138 10.1789 63.4613 9.81048C63.5326 9.26377 63.6039 8.59227 63.6752 7.79597C63.7584 6.98779 63.8416 6.12612 63.9248 5.21098C64.008 4.29583 64.0793 3.39257 64.1387 2.50119C64.1506 2.42988 64.1566 2.34075 64.1566 2.23378C64.1566 2.12682 64.1566 2.01391 64.1566 1.89506C64.1566 1.68113 64.1209 1.51474 64.0496 1.39589C63.9902 1.26515 63.8832 1.15819 63.7287 1.07499C63.5861 0.979913 63.4316 0.90266 63.2652 0.843235C63.0988 0.771925 62.9205 0.712499 62.7304 0.664959C62.5878 0.629304 62.4748 0.581765 62.3917 0.52234C62.3085 0.462915 62.2669 0.385662 62.2669 0.290582C62.2669 0.183616 62.3144 0.112306 62.4095 0.0766508C62.5046 0.0409962 62.6175 0.0231689 62.7482 0.0231689C62.9265 0.0231689 63.1464 0.0291114 63.4078 0.0409962C63.6693 0.0528811 63.9545 0.064766 64.2635 0.0766508C64.5844 0.0766508 64.9053 0.0825933 65.2262 0.0944781C65.559 0.106364 65.8621 0.112306 66.1354 0.112306C66.2305 0.112306 66.3196 0.147961 66.4028 0.219271C66.486 0.278696 66.5395 0.350007 66.5633 0.433202C66.6465 0.659017 66.7237 0.87889 66.795 1.09282C66.8664 1.29487 66.9436 1.5088 67.0268 1.73461L69.6475 7.99207C69.6712 8.03961 69.7009 8.06932 69.7366 8.08121C69.7841 8.08121 69.8198 8.0515 69.8436 7.99207L72.3929 2.07333C72.4761 1.65736 72.5415 1.31864 72.589 1.05716C72.6484 0.795694 72.7019 0.587707 72.7494 0.433202C72.797 0.278697 72.8921 0.201444 73.0347 0.201444H73.8013C74.3004 0.177674 74.8174 0.142018 75.3523 0.0944781C75.899 0.0350531 76.3268 0.00534058 76.6358 0.00534058C76.7547 0.00534058 76.8557 0.0291107 76.9389 0.0766508C77.034 0.112306 77.0815 0.177674 77.0815 0.272754C77.0815 0.379719 77.0399 0.456972 76.9567 0.504511C76.8854 0.552051 76.7903 0.593649 76.6715 0.629304C76.6002 0.653074 76.517 0.688729 76.4219 0.736269C76.3268 0.771925 76.2436 0.80758 76.1723 0.843235C75.8633 0.985855 75.6316 1.15225 75.4771 1.34241C75.3344 1.52068 75.275 1.81186 75.2988 2.21595C75.3226 3.07168 75.3523 3.82043 75.3879 4.46222C75.4236 5.10401 75.4533 5.69826 75.4771 6.24497C75.5127 6.79169 75.5484 7.36217 75.584 7.95642C75.6316 8.53878 75.6791 9.22217 75.7266 10.0066C75.7504 10.3156 75.8752 10.5652 76.101 10.7553C76.3387 10.9336 76.6477 11.0703 77.028 11.1654C77.1469 11.201 77.2479 11.2426 77.3311 11.2902C77.4143 11.3377 77.4559 11.415 77.4559 11.5219C77.4559 11.6051 77.4203 11.6705 77.3489 11.718C77.2776 11.7656 77.1885 11.7893 77.0815 11.7893C76.8201 11.7893 76.517 11.7775 76.1723 11.7537C75.8396 11.7418 75.5068 11.7299 75.174 11.718C74.8531 11.7061 74.5738 11.7002 74.3361 11.7002C74.0984 11.7002 73.831 11.7061 73.5339 11.718C73.2486 11.7299 72.9574 11.7418 72.6603 11.7537C72.3632 11.7775 72.0779 11.7893 71.8046 11.7893C71.6976 11.7893 71.6025 11.7715 71.5193 11.7359C71.4361 11.6883 71.3946 11.6229 71.3946 11.5398C71.3946 11.4328 71.4361 11.3496 71.5193 11.2902C71.6025 11.2307 71.7036 11.1891 71.8224 11.1654C72.2622 11.0822 72.5652 10.9633 72.7316 10.8088C72.898 10.6424 72.9753 10.375 72.9634 10.0066C72.9277 9.26971 72.898 8.53878 72.8742 7.8138C72.8505 7.07693 72.8267 6.35788 72.8029 5.65667C72.791 4.94357 72.7673 4.25423 72.7316 3.58867C72.7316 3.50548 72.7078 3.46982 72.6603 3.48171C72.6246 3.48171 72.589 3.52331 72.5533 3.6065L69.1483 11.7002C69.0889 11.8666 68.9997 11.9379 68.8809 11.9141C68.762 11.8904 68.6788 11.8309 68.6313 11.7359C68.0489 10.3572 67.4368 8.99636 66.795 7.65335C66.1651 6.31034 65.5828 4.97922 65.048 3.65998C65.0123 3.55302 64.9529 3.51736 64.8697 3.55302C64.7984 3.57679 64.7568 3.65404 64.7449 3.78478C64.7092 4.37903 64.6795 5.0327 64.6557 5.7458C64.632 6.44702 64.6201 7.16012 64.6201 7.88511C64.6201 8.59821 64.6201 9.26377 64.6201 9.88179C64.6201 10.2146 64.7271 10.4879 64.941 10.7019C65.1549 10.9039 65.4936 11.0584 65.9572 11.1654C66.076 11.1891 66.1889 11.2307 66.2959 11.2902C66.4028 11.3377 66.4563 11.415 66.4563 11.5219C66.4563 11.6051 66.4088 11.6705 66.3137 11.718C66.2186 11.7656 66.1176 11.7893 66.0106 11.7893C65.6897 11.7893 65.4402 11.7775 65.2619 11.7537C65.0836 11.7418 64.9232 11.7359 64.7805 11.7359C64.6379 11.724 64.4418 11.718 64.1922 11.718C63.9308 11.718 63.6633 11.724 63.39 11.7359C63.1166 11.7477 62.8789 11.7596 62.6769 11.7715C62.4748 11.7834 62.3441 11.7893 62.2847 11.7893Z" fill="white"/>
<path d="M79.7995 11.9854C79.4786 11.9854 79.1815 11.9082 78.9082 11.7537C78.6348 11.5992 78.4149 11.3971 78.2485 11.1475C78.094 10.898 78.0168 10.6246 78.0168 10.3275C78.0168 9.92339 78.1416 9.58467 78.3912 9.31131C78.6526 9.03795 79.033 8.79431 79.5321 8.58038L81.1188 7.88511C81.3565 7.77814 81.4991 7.68306 81.5466 7.59987C81.6061 7.51667 81.6358 7.36217 81.6358 7.13635L81.6536 6.12018C81.6655 5.7874 81.6061 5.52593 81.4753 5.33577C81.3446 5.13373 81.1485 5.0327 80.887 5.0327C80.7325 5.0327 80.578 5.06836 80.4235 5.13967C80.269 5.19909 80.1501 5.2704 80.0669 5.3536C80.0313 5.40114 80.0016 5.46056 79.9778 5.53187C79.9659 5.5913 79.96 5.65667 79.96 5.72798C79.96 5.79929 79.9659 5.88842 79.9778 5.99539C79.9897 6.09047 79.9956 6.17366 79.9956 6.24497C79.9956 6.31628 79.9006 6.41137 79.7104 6.53022C79.5202 6.63718 79.3004 6.7382 79.0508 6.83328C78.8012 6.91648 78.5873 6.95808 78.409 6.95808C78.3258 6.95808 78.2485 6.92242 78.1772 6.85111C78.1178 6.7798 78.0881 6.69066 78.0881 6.5837C78.0881 6.39354 78.1535 6.20932 78.2842 6.03104C78.4149 5.84088 78.6289 5.62695 78.926 5.38925C79.235 5.12778 79.5737 4.89603 79.9422 4.69398C80.3106 4.49193 80.6731 4.33149 81.0296 4.21264C81.3981 4.09379 81.7071 4.03436 81.9567 4.03436C82.5985 4.03436 83.1095 4.24235 83.4898 4.65833C83.8702 5.06242 84.0484 5.60318 84.0247 6.28063L83.9355 9.88179C83.9236 10.1551 83.9712 10.3869 84.0781 10.5771C84.1851 10.7672 84.3158 10.8623 84.4703 10.8623C84.6962 10.8623 84.8923 10.7851 85.0587 10.6305C85.0943 10.5949 85.13 10.5771 85.1656 10.5771C85.225 10.5771 85.2726 10.5949 85.3082 10.6305C85.3558 10.6662 85.3795 10.7137 85.3795 10.7732C85.3795 10.9158 85.2726 11.1 85.0587 11.3258C84.8328 11.5398 84.5951 11.7002 84.3456 11.8072C84.096 11.926 83.8345 11.9854 83.5611 11.9854C82.8956 11.9854 82.3429 11.6467 81.9032 10.9693H81.8675C81.4753 11.3258 81.1188 11.5813 80.7979 11.7359C80.4889 11.9022 80.1561 11.9854 79.7995 11.9854ZM80.8692 10.8266C80.9999 10.8266 81.1069 10.8088 81.1901 10.7732C81.2733 10.7256 81.3565 10.6543 81.4397 10.5592C81.4753 10.5117 81.505 10.4523 81.5288 10.381C81.5526 10.2978 81.5645 10.2027 81.5645 10.0957L81.6179 8.81214C81.6179 8.69329 81.6001 8.61604 81.5645 8.58038C81.5288 8.54473 81.4872 8.5269 81.4397 8.5269C81.4159 8.5269 81.3862 8.53284 81.3505 8.54473C81.3149 8.55661 81.2733 8.57444 81.2257 8.59821C80.8811 8.7646 80.6255 8.93693 80.4592 9.11521C80.2928 9.2816 80.2096 9.55495 80.2096 9.93527C80.2096 10.2799 80.2809 10.5176 80.4235 10.6484C80.5661 10.7672 80.7147 10.8266 80.8692 10.8266Z" fill="white"/>
<path d="M86.0655 11.7893C85.9704 11.7893 85.8872 11.7715 85.8159 11.7359C85.7446 11.6883 85.7089 11.6229 85.7089 11.5398C85.7089 11.4447 85.7446 11.3734 85.8159 11.3258C85.8872 11.2664 85.9882 11.2189 86.119 11.1832C86.3804 11.1 86.5528 11.0109 86.636 10.9158C86.7311 10.8207 86.7786 10.684 86.7786 10.5058V6.40542C86.7786 6.15584 86.7429 5.95379 86.6716 5.79929C86.6122 5.6329 86.4696 5.51999 86.2438 5.46056C86.1843 5.43679 86.1309 5.40708 86.0833 5.37143C86.0358 5.32389 86.012 5.24663 86.012 5.13967C86.012 4.97328 86.0833 4.87226 86.2259 4.8366C86.6063 4.74152 87.0222 4.61673 87.4739 4.46222C87.9374 4.30772 88.3296 4.15321 88.6505 3.99871C88.7099 3.95117 88.7812 3.90957 88.8644 3.87391C88.9595 3.82637 89.0249 3.8026 89.0605 3.8026C89.1675 3.8026 89.221 3.86797 89.221 3.99871C89.221 4.05813 89.215 4.18292 89.2031 4.37309C89.2031 4.55136 89.1972 4.73558 89.1853 4.92574C89.1853 5.1159 89.1794 5.27635 89.1675 5.40708C89.1675 5.51405 89.1912 5.56753 89.2388 5.56753C89.4171 5.31794 89.6251 5.0743 89.8628 4.8366C90.1123 4.5989 90.3798 4.4028 90.665 4.24829C90.9502 4.09379 91.2295 4.01653 91.5029 4.01653C91.9189 4.01653 92.21 4.09379 92.3764 4.24829C92.5547 4.4028 92.6438 4.60484 92.6438 4.85443C92.6438 5.0327 92.5904 5.22881 92.4834 5.44274C92.3883 5.65667 92.2635 5.84088 92.109 5.99539C91.9545 6.14989 91.7881 6.22715 91.6099 6.22715C91.5029 6.22715 91.39 6.20338 91.2711 6.15584C91.1523 6.09641 91.0334 6.03699 90.9146 5.97756C90.7957 5.93002 90.6769 5.88248 90.558 5.83494C90.4511 5.77552 90.35 5.7458 90.255 5.7458C89.9459 5.7458 89.6785 5.85871 89.4527 6.08453C89.2269 6.31034 89.114 6.76197 89.114 7.43942V10.3453C89.114 10.583 89.1853 10.7613 89.3279 10.8801C89.4824 10.9871 89.7261 11.0881 90.0589 11.1832C90.1896 11.2189 90.2847 11.2664 90.3441 11.3258C90.4154 11.3734 90.4511 11.4447 90.4511 11.5398C90.4511 11.7061 90.35 11.7893 90.148 11.7893C89.7914 11.7893 89.423 11.7715 89.0427 11.7359C88.6624 11.7121 88.3177 11.7002 88.0087 11.7002C87.8066 11.7002 87.5987 11.7061 87.3847 11.718C87.1827 11.7299 86.9688 11.7418 86.7429 11.7537C86.529 11.7775 86.3032 11.7893 86.0655 11.7893Z" fill="white"/>
<path d="M93.3581 11.7893C93.2868 11.7893 93.2214 11.7715 93.162 11.7359C93.1025 11.6883 93.0728 11.6289 93.0728 11.5576C93.0728 11.4625 93.1025 11.3852 93.162 11.3258C93.2214 11.2664 93.2986 11.2248 93.3937 11.201C93.7027 11.1297 93.9167 11.0525 94.0355 10.9693C94.1662 10.8742 94.2316 10.7316 94.2316 10.5414V6.69066C94.2316 6.28657 94.1662 6.00133 94.0355 5.83494C93.9167 5.65667 93.7265 5.5497 93.465 5.51405C93.3937 5.50216 93.3402 5.46651 93.3046 5.40708C93.2689 5.34766 93.2511 5.27635 93.2511 5.19315C93.2511 5.01488 93.3165 4.91385 93.4472 4.89008C94.0652 4.77123 94.6119 4.60484 95.0873 4.39091C95.5746 4.17698 95.949 4.01059 96.2105 3.89174C96.4006 3.79666 96.5195 3.74912 96.567 3.74912C96.7215 3.74912 96.7988 3.82043 96.7988 3.96305C96.7869 4.1651 96.7572 4.42063 96.7096 4.72964C96.674 5.02676 96.6383 5.33577 96.6027 5.65667C96.5789 5.97756 96.567 6.28657 96.567 6.5837V10.5236C96.567 10.69 96.6264 10.8207 96.7453 10.9158C96.876 11.0109 97.1018 11.1059 97.4227 11.201C97.5178 11.2367 97.5951 11.2783 97.6545 11.3258C97.7139 11.3734 97.7436 11.4447 97.7436 11.5398C97.7436 11.6943 97.6545 11.7715 97.4762 11.7715C97.2504 11.7715 97.0127 11.7656 96.7631 11.7537C96.5135 11.7418 96.2699 11.7299 96.0322 11.718C95.8064 11.7061 95.5865 11.7002 95.3726 11.7002C95.1705 11.7002 94.9566 11.7061 94.7308 11.718C94.5169 11.7299 94.291 11.7418 94.0533 11.7537C93.8275 11.7775 93.5958 11.7893 93.3581 11.7893ZM95.3191 2.94688C94.9507 2.94688 94.6238 2.8102 94.3386 2.53685C94.0652 2.26349 93.9285 1.93666 93.9285 1.55634C93.9285 1.15225 94.0652 0.813522 94.3386 0.540167C94.6238 0.266811 94.9507 0.130134 95.3191 0.130134C95.7351 0.130134 96.0797 0.266811 96.3531 0.540167C96.6264 0.813522 96.7631 1.15225 96.7631 1.55634C96.7631 1.93666 96.6264 2.26349 96.3531 2.53685C96.0797 2.8102 95.7351 2.94688 95.3191 2.94688Z" fill="white"/>
<path d="M100.256 11.9854C99.935 11.9854 99.6379 11.9082 99.3645 11.7537C99.0912 11.5992 98.8713 11.3971 98.7049 11.1475C98.5504 10.898 98.4732 10.6246 98.4732 10.3275C98.4732 9.92339 98.598 9.58467 98.8475 9.31131C99.109 9.03795 99.4893 8.79431 99.9885 8.58038L101.575 7.88511C101.813 7.77814 101.955 7.68306 102.003 7.59987C102.062 7.51667 102.092 7.36217 102.092 7.13635L102.11 6.12018C102.122 5.7874 102.062 5.52593 101.932 5.33577C101.801 5.13373 101.605 5.0327 101.343 5.0327C101.189 5.0327 101.034 5.06836 100.88 5.13967C100.725 5.19909 100.607 5.2704 100.523 5.3536C100.488 5.40114 100.458 5.46056 100.434 5.53187C100.422 5.5913 100.416 5.65667 100.416 5.72798C100.416 5.79929 100.422 5.88842 100.434 5.99539C100.446 6.09047 100.452 6.17366 100.452 6.24497C100.452 6.31628 100.357 6.41137 100.167 6.53022C99.9766 6.63718 99.7568 6.7382 99.5072 6.83328C99.2576 6.91648 99.0436 6.95808 98.8654 6.95808C98.7822 6.95808 98.7049 6.92242 98.6336 6.85111C98.5742 6.7798 98.5445 6.69066 98.5445 6.5837C98.5445 6.39354 98.6098 6.20932 98.7406 6.03104C98.8713 5.84088 99.0853 5.62695 99.3824 5.38925C99.6914 5.12778 100.03 4.89603 100.399 4.69398C100.767 4.49193 101.129 4.33149 101.486 4.21264C101.854 4.09379 102.163 4.03436 102.413 4.03436C103.055 4.03436 103.566 4.24235 103.946 4.65833C104.327 5.06242 104.505 5.60318 104.481 6.28063L104.392 9.88179C104.38 10.1551 104.428 10.3869 104.535 10.5771C104.641 10.7672 104.772 10.8623 104.927 10.8623C105.153 10.8623 105.349 10.7851 105.515 10.6305C105.551 10.5949 105.586 10.5771 105.622 10.5771C105.681 10.5771 105.729 10.5949 105.765 10.6305C105.812 10.6662 105.836 10.7137 105.836 10.7732C105.836 10.9158 105.729 11.1 105.515 11.3258C105.289 11.5398 105.052 11.7002 104.802 11.8072C104.552 11.926 104.291 11.9854 104.018 11.9854C103.352 11.9854 102.799 11.6467 102.36 10.9693H102.324C101.932 11.3258 101.575 11.5813 101.254 11.7359C100.945 11.9022 100.612 11.9854 100.256 11.9854ZM101.326 10.8266C101.456 10.8266 101.563 10.8088 101.646 10.7732C101.73 10.7256 101.813 10.6543 101.896 10.5592C101.932 10.5117 101.961 10.4523 101.985 10.381C102.009 10.2978 102.021 10.2027 102.021 10.0957L102.074 8.81214C102.074 8.69329 102.057 8.61604 102.021 8.58038C101.985 8.54473 101.944 8.5269 101.896 8.5269C101.872 8.5269 101.843 8.53284 101.807 8.54473C101.771 8.55661 101.73 8.57444 101.682 8.59821C101.337 8.7646 101.082 8.93693 100.916 9.11521C100.749 9.2816 100.666 9.55495 100.666 9.93527C100.666 10.2799 100.737 10.5176 100.88 10.6484C101.023 10.7672 101.171 10.8266 101.326 10.8266Z" fill="white"/>
<rect x="0.581512" y="36.7477" width="104.673" height="1.43178" rx="0.715892" fill="white"/>
<path d="M2.17233 53.9946V46.1093H2.99575L8.35501 52.7525H7.96423V46.1093H8.96909V53.9946H8.1317L2.77245 47.3374H3.17719V53.9946H2.17233ZM19.5238 54.0784C18.7237 54.0784 18.0026 53.9062 17.3606 53.562C16.7186 53.2084 16.2115 52.7292 15.8393 52.1245C15.4765 51.5104 15.295 50.8172 15.295 50.045C15.295 49.2727 15.4765 48.5842 15.8393 47.9794C16.2115 47.3746 16.7186 46.8955 17.3606 46.5419C18.0026 46.1884 18.7237 46.0116 19.5238 46.0116C20.3333 46.0116 21.0544 46.1884 21.6871 46.5419C22.3291 46.8955 22.8315 47.3746 23.1944 47.9794C23.5665 48.5842 23.7526 49.2727 23.7526 50.045C23.7526 50.8172 23.5665 51.5104 23.1944 52.1245C22.8315 52.7292 22.3291 53.2084 21.6871 53.562C21.0544 53.9062 20.3333 54.0784 19.5238 54.0784ZM19.5238 53.2131C20.1472 53.2131 20.7008 53.0782 21.1846 52.8083C21.6685 52.5292 22.0499 52.1524 22.3291 51.6779C22.6082 51.194 22.7477 50.6497 22.7477 50.045C22.7477 49.4402 22.6035 48.9005 22.3151 48.426C22.036 47.9515 21.6545 47.5793 21.1707 47.3095C20.6962 47.0304 20.1472 46.8908 19.5238 46.8908C18.9097 46.8908 18.3561 47.0304 17.863 47.3095C17.3792 47.5793 16.9977 47.9515 16.7186 48.426C16.4395 48.9005 16.2999 49.4402 16.2999 50.045C16.2999 50.6497 16.4395 51.194 16.7186 51.6779C16.9977 52.1524 17.3792 52.5292 17.863 52.8083C18.3561 53.0782 18.9097 53.2131 19.5238 53.2131ZM31.3084 53.9946V46.9467H28.531V46.1093H35.0905V46.9467H32.3132V53.9946H31.3084ZM38.8641 53.9946L42.5067 46.1093H43.4976L47.1402 53.9946H46.1354L42.8277 46.6536H43.1766L39.855 53.9946H38.8641ZM40.3993 51.957L40.6924 51.1475H45.1863L45.4794 51.957H40.3993ZM52.8297 53.9946V46.1093H55.8861C56.5746 46.1093 57.1608 46.2163 57.6446 46.4303C58.1377 46.6443 58.5192 46.956 58.789 47.3653C59.0589 47.7654 59.1938 48.2539 59.1938 48.8308C59.1938 49.389 59.0589 49.8728 58.789 50.2822C58.5192 50.6916 58.1377 51.0033 57.6446 51.2173C57.1608 51.4313 56.5746 51.5383 55.8861 51.5383H53.3879L53.8345 51.0917V53.9946H52.8297ZM58.2308 53.9946L56.1652 51.1336H57.2678L59.3194 53.9946H58.2308ZM53.8345 51.1894L53.4437 50.7149H55.8442C56.6072 50.7149 57.1887 50.5521 57.5888 50.2264C57.9889 49.8915 58.1889 49.4262 58.1889 48.8308C58.1889 48.226 57.9889 47.7608 57.5888 47.4351C57.1887 47.1095 56.6072 46.9467 55.8442 46.9467H53.4437L53.8345 46.4721V51.1894ZM65.7257 53.9946V46.1093H66.7305V53.9946H65.7257ZM77.1173 54.0784C76.4194 54.0784 75.8193 53.9481 75.3169 53.6876C74.8238 53.4178 74.4423 53.027 74.1725 52.5153C73.9026 52.0035 73.7677 51.3801 73.7677 50.6451V46.1093H74.7726V50.6172C74.7726 51.4825 74.9773 52.1338 75.3867 52.5711C75.7961 52.9991 76.3729 53.2131 77.1173 53.2131C77.8709 53.2131 78.4524 52.9991 78.8618 52.5711C79.2712 52.1338 79.4759 51.4825 79.4759 50.6172V46.1093H80.4528V50.6451C80.4528 51.3801 80.3179 52.0035 80.0481 52.5153C79.7876 53.027 79.4061 53.4178 78.9037 53.6876C78.4106 53.9481 77.8151 54.0784 77.1173 54.0784ZM92.7171 51.8453C92.7171 52.2826 92.5962 52.6688 92.3543 53.0037C92.1216 53.3387 91.7774 53.6039 91.3215 53.7992C90.8749 53.9853 90.3213 54.0784 89.6607 54.0784C89.0559 54.0784 88.4744 53.9853 87.9161 53.7992C87.3672 53.6132 86.9345 53.3759 86.6182 53.0875L87.0369 52.3059C87.3253 52.5757 87.7068 52.799 88.1813 52.9758C88.6651 53.1433 89.1675 53.227 89.6886 53.227C90.4143 53.227 90.9307 53.1014 91.2377 52.8502C91.5541 52.5897 91.7123 52.2826 91.7123 51.9291C91.7123 51.6313 91.6239 51.3987 91.4471 51.2313C91.2703 51.0545 91.0377 50.9149 90.7493 50.8126C90.4608 50.7009 90.1445 50.6079 89.8002 50.5334C89.456 50.459 89.1117 50.3753 88.7675 50.2822C88.4232 50.1892 88.1022 50.0636 87.8045 49.9054C87.516 49.7472 87.2834 49.5379 87.1066 49.2774C86.9392 49.0169 86.8554 48.6726 86.8554 48.2446C86.8554 47.8166 86.9717 47.4351 87.2043 47.1002C87.437 46.7652 87.7766 46.5 88.2232 46.3047C88.6698 46.1093 89.2187 46.0116 89.87 46.0116C90.3352 46.0116 90.7911 46.0721 91.2377 46.193C91.6936 46.3047 92.0844 46.4768 92.4101 46.7094L92.0472 47.5189C91.7123 47.2863 91.354 47.1234 90.9726 47.0304C90.5911 46.928 90.2143 46.8769 89.8421 46.8769C89.1536 46.8769 88.6465 47.0071 88.3209 47.2676C88.0045 47.5189 87.8463 47.8306 87.8463 48.2027C87.8463 48.5005 87.9347 48.7377 88.1115 48.9145C88.2883 49.082 88.5209 49.2215 88.8093 49.3332C89.0978 49.4355 89.4141 49.5239 89.7584 49.5984C90.1119 49.6728 90.4608 49.7565 90.8051 49.8496C91.1493 49.9426 91.4657 50.0682 91.7541 50.2264C92.0426 50.3753 92.2752 50.58 92.4519 50.8405C92.6287 51.101 92.7171 51.436 92.7171 51.8453ZM98.1104 53.9946V53.3247L103.581 46.5838L103.665 46.9467H98.1941V46.1093H104.6V46.7792L99.1432 53.5062L99.0315 53.1572H104.74V53.9946H98.1104Z" fill="white"/>
</svg>
