<svg width="82" height="82" viewBox="0 0 82 82" fill="none" xmlns="http://www.w3.org/2000/svg">
<rect x="63.572" y="39.5159" width="11.4541" height="41.0876" rx="2" transform="rotate(90 63.572 39.5159)" fill="#4375B5"/>
<path d="M61.2878 75.3312H20.7122C20.0236 75.3312 19.4659 74.7735 19.4659 74.085C19.4659 71.4283 17.3047 69.2671 14.648 69.2671C13.9594 69.2671 13.4017 68.7094 13.4017 68.0208V13.8181C13.4017 13.1296 13.9594 12.5719 14.648 12.5719C17.3047 12.5719 19.4659 10.4106 19.4659 7.75397C19.4659 7.0654 20.0236 6.50769 20.7122 6.50769H61.2883C61.9769 6.50769 62.5346 7.0654 62.5346 7.75397C62.5346 10.4106 64.6959 12.5719 67.3525 12.5719C68.0411 12.5719 68.5988 13.1296 68.5988 13.8181V68.0208C68.5988 68.7094 68.0411 69.2671 67.3525 69.2671C64.6959 69.2671 62.5346 71.4283 62.5346 74.085C62.5341 74.7735 61.9764 75.3312 61.2878 75.3312ZM21.852 72.8387H60.148C60.6714 69.804 63.0716 67.4039 66.1057 66.881V14.9585C63.071 14.435 60.6709 12.0349 60.148 9.00024H21.852C21.3286 12.0349 18.9285 14.435 15.8938 14.9585V66.881C18.9285 67.4039 21.3286 69.804 21.852 72.8387Z" fill="white"/>
<path d="M37.4959 33.0629C33.5384 33.0629 30.3184 29.8434 30.3184 25.8854C30.3184 21.9274 33.5379 18.7079 37.4959 18.7079C41.4538 18.7079 44.6734 21.9274 44.6734 25.8854C44.6734 29.8434 41.4533 33.0629 37.4959 33.0629ZM37.4959 21.2004C34.9124 21.2004 32.8109 23.302 32.8109 25.8854C32.8109 28.4688 34.9124 30.5704 37.4959 30.5704C40.0793 30.5704 42.1808 28.4688 42.1808 25.8854C42.1808 23.302 40.0793 21.2004 37.4959 21.2004Z" fill="white"/>
<path d="M44.5041 33.0629C40.5466 33.0629 37.3265 29.8434 37.3265 25.8854C37.3265 21.9274 40.5461 18.7079 44.5041 18.7079C48.4615 18.7079 51.6816 21.9274 51.6816 25.8854C51.6816 29.8434 48.4615 33.0629 44.5041 33.0629ZM44.5041 21.2004C41.9211 21.2004 39.8191 23.302 39.8191 25.8854C39.8191 28.4688 41.9206 30.5704 44.5041 30.5704C47.0875 30.5704 49.189 28.4688 49.189 25.8854C49.189 23.302 47.087 21.2004 44.5041 21.2004Z" fill="white"/>
<path d="M33.8214 67.4802C33.5535 67.4802 33.2866 67.4631 33.0223 67.4283C32.3399 67.3385 31.8591 66.7127 31.9489 66.0304C32.0387 65.3481 32.6645 64.8677 33.3468 64.957C33.9263 65.0334 34.5422 64.9638 35.1399 64.7706C34.8351 64.3713 34.5723 63.9393 34.3636 63.4896C34.0484 62.8114 33.8957 62.0828 33.9222 61.3823C33.9544 60.5224 34.2561 59.7518 34.7951 59.1525C35.4167 58.4613 36.3244 58.0755 37.2238 58.1186C38.7058 58.1908 40.0777 59.2449 40.5607 60.6808C40.8323 61.4877 40.7731 62.4235 40.3992 63.2476C40.2096 63.6651 39.9568 64.0795 39.6447 64.4861C40.1359 64.4144 40.6038 64.1994 40.9351 63.8505C41.0472 63.7326 41.1625 63.5846 41.2851 63.4283C41.5042 63.1484 41.7524 62.8311 42.0853 62.5439C42.9733 61.778 44.1193 61.6087 45.0047 62.1124C45.8049 62.5678 46.0822 63.3727 46.2655 63.905C46.2774 63.9403 46.2899 63.9751 46.3019 64.0099C46.5231 63.8473 46.8061 63.6677 47.1737 63.5716C48.0212 63.3504 48.7331 63.7061 49.2046 63.9413C49.255 63.9668 49.3054 63.9917 49.3552 64.0156C49.9753 64.3142 50.2365 65.0588 49.9379 65.6789C49.6393 66.2989 48.8946 66.5601 48.2746 66.2615C48.2139 66.2324 48.1526 66.2018 48.0908 66.1706C47.9958 66.1234 47.8659 66.0584 47.773 66.0211C47.7366 66.0481 47.6966 66.0787 47.6624 66.1047C47.3664 66.3326 46.9193 66.6769 46.2655 66.7153C45.2737 66.7735 44.3976 66.0818 43.977 64.9114C43.9542 64.847 43.9313 64.7815 43.9085 64.7156C43.8737 64.6143 43.8275 64.4809 43.7844 64.3765C43.761 64.391 43.7366 64.4087 43.7122 64.4295C43.5642 64.5572 43.4105 64.754 43.2474 64.9622C43.1015 65.1487 42.9364 65.36 42.7427 65.5641C41.3567 67.0248 39.0459 67.3987 37.2466 66.559C36.1769 67.1562 34.9898 67.4802 33.8214 67.4802ZM37.0841 60.6081C36.9366 60.6081 36.7637 60.6911 36.6484 60.8194C36.2948 61.2125 36.3815 61.9167 36.6245 62.4396C36.7896 62.7958 37.0077 63.1344 37.2638 63.4371C37.2897 63.4101 37.3157 63.3826 37.3416 63.3545C37.6974 62.9682 37.9627 62.5855 38.1299 62.2173C38.2447 61.9649 38.2701 61.6876 38.1985 61.4753C38.0427 61.0115 37.5613 60.6304 37.1028 60.6081C37.0965 60.6086 37.0903 60.6081 37.0841 60.6081Z" fill="white"/>
<path d="M60.4358 44.4319H21.5644C20.8758 44.4319 20.3181 43.8742 20.3181 43.1856C20.3181 42.497 20.8758 41.9393 21.5644 41.9393H60.4358C61.1243 41.9393 61.682 42.497 61.682 43.1856C61.682 43.8742 61.1243 44.4319 60.4358 44.4319Z" fill="white"/>
<path d="M33.4772 49.8241H21.5644C20.8758 49.8241 20.3181 49.2664 20.3181 48.5778C20.3181 47.8893 20.8758 47.3315 21.5644 47.3315H33.4772C34.1658 47.3315 34.7235 47.8893 34.7235 48.5778C34.7235 49.2664 34.1653 49.8241 33.4772 49.8241Z" fill="white"/>
<path d="M60.4357 49.8241H37.5213C36.8327 49.8241 36.275 49.2664 36.275 48.5778C36.275 47.8893 36.8327 47.3315 37.5213 47.3315H60.4357C61.1242 47.3315 61.6819 47.8893 61.6819 48.5778C61.6819 49.2664 61.1242 49.8241 60.4357 49.8241Z" fill="white"/>
<path d="M49.75 55.2163H21.5644C20.8758 55.2163 20.3181 54.6586 20.3181 53.97C20.3181 53.2815 20.8758 52.7238 21.5644 52.7238H49.75C50.4385 52.7238 50.9963 53.2815 50.9963 53.97C50.9963 54.6586 50.438 55.2163 49.75 55.2163Z" fill="white"/>
<path d="M60.4357 55.2163H53.6014C52.9128 55.2163 52.3551 54.6586 52.3551 53.97C52.3551 53.2815 52.9128 52.7238 53.6014 52.7238H60.4357C61.1242 52.7238 61.6819 53.2815 61.6819 53.97C61.6819 54.6586 61.1242 55.2163 60.4357 55.2163Z" fill="white"/>
<path d="M72.8216 80.8003H9.17841C8.48984 80.8003 7.93213 80.2426 7.93213 79.554V2.28485C7.93213 1.59628 8.48984 1.03857 9.17841 1.03857H72.8216C73.5102 1.03857 74.0679 1.59628 74.0679 2.28485V79.554C74.0679 80.2426 73.5096 80.8003 72.8216 80.8003ZM10.4247 78.3077H71.5753V3.53113H10.4247V78.3077Z" fill="white"/>
</svg>
