<svg width="82" height="82" viewBox="0 0 82 82" fill="none" xmlns="http://www.w3.org/2000/svg">
<rect x="10" y="8.69141" width="11.4541" height="26.478" rx="2" fill="#4375B5"/>
<path d="M19.8008 23.2007C20.4998 23.2007 21.0664 23.7673 21.0664 24.4663V26.0483C21.0664 26.7473 20.4998 27.314 19.8008 27.314C19.1018 27.314 18.5352 26.7473 18.5352 26.0483V24.4663C18.5352 23.7673 19.1018 23.2007 19.8008 23.2007Z" fill="white"/>
<path fill-rule="evenodd" clip-rule="evenodd" d="M16.6367 5.16553C15.2388 5.16553 14.1055 6.29881 14.1055 7.69678V27.9468C14.1055 29.3447 15.2388 30.478 16.6367 30.478H23.2812C24.6792 30.478 25.8125 29.3447 25.8125 27.9468H27.2347C28.6859 27.9468 30.0983 28.6776 31.1189 29.877C32.342 31.3145 34.1315 33.1722 35.9886 34.1333C37.5797 34.9568 38.9132 35.2628 40.1775 35.4974C40.3773 35.5344 40.5731 35.5694 40.7666 35.604C41.7949 35.7878 42.7604 35.9604 43.9216 36.3685C45.8003 37.5591 48.7623 39.3272 51.1338 40.7276C52.7782 41.6987 54.7115 41.5846 56.1875 40.6695V43.5404C51.8941 44.1545 48.5938 47.8469 48.5938 52.3101C48.5938 55.7199 50.5197 58.6774 53.3398 60.1584V60.9616C53.3398 61.6329 53.6065 62.2768 54.0812 62.7515L54.4753 63.1455L53.9265 63.8038C53.5475 64.2588 53.3398 64.8322 53.3398 65.4245V67.2058C53.3398 67.9747 53.6562 68.7632 54.3886 69.2612L53.9265 69.8156C53.5475 70.2705 53.3398 70.8439 53.3398 71.4362V74.4585C53.3398 75.8564 54.4731 76.9897 55.8711 76.9897H57.4669C58.2481 76.9897 58.9854 76.629 59.465 76.0127L61.0332 73.9965C61.3788 73.5517 61.5664 73.0049 61.5664 72.4424V60.1584C64.3862 58.6774 66.3125 55.7199 66.3125 52.3101C66.3125 47.8469 63.0121 44.1545 58.7188 43.5404V40.1351C59.5474 41.0918 60.6193 41.8527 61.8725 42.3144C63.2037 42.8048 64.6615 42.0057 64.964 40.6197L68.3533 25.0838C68.5343 24.2544 68.2875 23.3895 67.6958 22.7805L57.6445 12.4334C57.3393 12.1193 56.9579 11.8897 56.5376 11.7672L41.8444 7.48162C41.6141 7.41448 41.3754 7.38037 41.1356 7.38037H25.7929C25.6372 6.13174 24.5721 5.16553 23.2812 5.16553H16.6367ZM51.125 52.3101C51.125 49.2486 53.299 46.6949 56.1875 46.1085V50.4116C56.1875 51.1106 56.7541 51.6772 57.4531 51.6772C58.1521 51.6772 58.7188 51.1106 58.7188 50.4116V46.1085C61.6072 46.6949 63.7812 49.2486 63.7812 52.3101C63.7812 54.9977 62.1053 57.2969 59.737 58.2139C59.4147 58.3387 59.1574 58.5899 59.025 58.9092C58.9679 59.0466 59.0352 72.4424 59.0352 72.4424L57.4669 74.4585H55.8711V71.4362L56.3332 70.8818C57.2408 69.7928 57.1367 68.1304 55.8711 67.2058V65.4245L56.4199 64.7657C57.258 63.7602 57.1909 62.2814 56.2651 61.3557L55.8711 60.9616V59.9038V59.903C56.0099 59.587 56.0136 59.228 55.8813 58.9092C55.7488 58.5899 55.4916 58.3387 55.1692 58.2139C52.8009 57.2969 51.125 54.9977 51.125 52.3101ZM25.8125 9.91162V25.4155H27.2347C29.5472 25.4155 31.6283 26.5697 33.0467 28.2367C34.2445 29.6445 35.7649 31.1674 37.152 31.8853C38.4245 32.5438 39.4803 32.7936 40.6391 33.0085C40.8143 33.041 40.9939 33.0729 41.1781 33.1057C42.2139 33.2898 43.3958 33.5 44.7685 33.983C44.9485 34.0465 45.1164 34.1289 45.2731 34.2282C47.1134 35.3947 50.0454 37.1453 52.4209 38.548C53.6964 39.3013 55.3442 38.6973 55.8344 37.2878C56.231 36.1476 55.7128 34.8124 54.5701 34.1543C52.5671 33.0007 49.8687 31.2459 48.0424 29.2293C47.1303 28.2222 46.3464 27.054 46.0469 25.7741C45.731 24.4241 45.979 23.0418 46.9658 21.786C48.0312 20.4299 49.4513 20.0025 50.8841 20.1991C52.2148 20.3818 53.5204 21.0894 54.64 21.8818C56.9 23.4815 58.9114 25.8005 59.6764 26.7262C60.1294 27.2744 60.3089 27.9758 60.2155 28.6486L59.4188 34.3846C59.0952 36.7142 60.3865 38.9574 62.5392 39.8573L65.8803 24.5442L55.8289 14.1972L41.1356 9.91162H25.8125ZM16.6367 7.69678H23.2812V27.9468H16.6367V7.69678ZM57.7061 28.3156L57.0645 32.9361C56.7079 32.5566 56.2941 32.2262 55.8334 31.9608C53.8793 30.8354 51.4679 29.2408 49.9185 27.5301C49.1427 26.6734 48.6722 25.8836 48.5115 25.1973C48.3674 24.5812 48.4536 23.9894 48.9561 23.3498C49.4129 22.7685 49.9085 22.6203 50.54 22.7069C51.2735 22.8076 52.1807 23.2422 53.1776 23.9478C55.1338 25.3324 56.9557 27.4095 57.7061 28.3156Z" fill="white"/>
<path d="M47.9304 47.8635C48.6292 47.8804 49.2093 47.3276 49.2262 46.6288C49.243 45.93 48.6902 45.3499 47.9914 45.333C45.6655 45.2769 43.3166 46.1332 41.5339 47.9037C39.1145 50.3065 38.3732 53.757 39.3096 56.8016L38.7396 57.3677C38.2633 57.8407 37.9944 58.4836 37.9921 59.155L37.9902 59.7122L37.1362 59.7869C36.5463 59.8385 35.9932 60.0952 35.573 60.5125L34.3092 61.7676C33.7636 62.3095 33.4062 63.0679 33.5897 63.9602L32.8707 64.0228C32.2808 64.0747 31.7276 64.3316 31.3074 64.7487L29.163 66.8787C28.1711 67.8634 28.1656 69.4663 29.1507 70.4579L30.2752 71.5906C30.8256 72.145 31.6011 72.4139 32.3765 72.3196L34.9123 72.0115C35.471 71.9438 35.9912 71.6913 36.3906 71.2945L45.1065 62.6388C47.2288 63.3078 49.5525 63.1591 51.5867 62.1904C52.2178 61.8899 52.4857 61.1347 52.1852 60.5036C51.8847 59.8725 51.1294 59.6045 50.4984 59.9051C48.8291 60.6999 46.8811 60.7214 45.1971 59.9705L43.9874 59.431L43.504 60.6627L43.5035 60.6634L34.6069 69.4986L32.0713 69.8067L30.9467 68.6746L33.0912 66.5446L33.8102 66.4819C35.2226 66.3585 36.2539 65.2828 36.0929 63.5637L37.3567 62.3085L38.2107 62.2339C39.5148 62.1198 40.5169 61.0301 40.5214 59.721C40.5259 58.4118 41.2739 58.4183 41.2739 58.4183L41.2745 58.4178L42.5095 57.9429L41.9784 56.7295C40.9602 54.4029 41.4106 51.5936 43.3176 49.6997C44.5912 48.4349 46.2652 47.8233 47.9304 47.8635Z" fill="white"/>
</svg>
