<svg width="82" height="82" viewBox="0 0 82 82" fill="none" xmlns="http://www.w3.org/2000/svg">
<rect x="64.4196" y="29.671" width="11.7733" height="43.1041" rx="2" transform="rotate(44.6217 64.4196 29.671)" fill="#4375B5"/>
<path d="M13.1562 59.9038C13.1562 59.7376 13.1889 59.573 13.2525 59.4194C13.3161 59.2659 13.4093 59.1263 13.5268 59.0088C13.6444 58.8913 13.7839 58.798 13.9375 58.7345C14.0911 58.6709 14.2557 58.6382 14.4219 58.6382H33.4062C33.7419 58.6382 34.0638 58.7715 34.3012 59.0089C34.5385 59.2463 34.6719 59.5682 34.6719 59.9038C34.6719 60.2395 34.5385 60.5614 34.3012 60.7988C34.0638 61.0361 33.7419 61.1695 33.4062 61.1695H14.4219C14.2557 61.1695 14.0911 61.1368 13.9375 61.0732C13.7839 61.0096 13.6444 60.9164 13.5268 60.7989C13.4093 60.6813 13.3161 60.5418 13.2525 60.3882C13.1889 60.2346 13.1562 60.07 13.1562 59.9038ZM42.2656 52.3101C42.2657 52.1439 42.233 51.9793 42.1694 51.8257C42.1058 51.6721 42.0126 51.5326 41.895 51.4151C41.7775 51.2975 41.638 51.2043 41.4844 51.1407C41.3308 51.0771 41.1662 51.0444 41 51.0445H27.0781C26.7425 51.0445 26.4205 51.1778 26.1832 51.4151C25.9458 51.6525 25.8125 51.9744 25.8125 52.3101C25.8125 52.6457 25.9458 52.9677 26.1832 53.205C26.4205 53.4424 26.7425 53.5757 27.0781 53.5757H41C41.1662 53.5758 41.3308 53.543 41.4844 53.4795C41.638 53.4159 41.7775 53.3226 41.895 53.2051C42.0126 53.0876 42.1058 52.948 42.1694 52.7945C42.233 52.6409 42.2657 52.4763 42.2656 52.3101ZM14.4219 53.5757H22.0156C22.3513 53.5757 22.6732 53.4424 22.9106 53.205C23.1479 52.9677 23.2812 52.6457 23.2812 52.3101C23.2812 51.9744 23.1479 51.6525 22.9106 51.4151C22.6732 51.1778 22.3513 51.0445 22.0156 51.0445H14.4219C14.0862 51.0445 13.7643 51.1778 13.5269 51.4151C13.2896 51.6525 13.1562 51.9744 13.1562 52.3101C13.1562 52.6457 13.2896 52.9677 13.5269 53.205C13.7643 53.4424 14.0862 53.5757 14.4219 53.5757ZM29.3362 70.0288C29.3363 70.195 29.3036 70.3596 29.24 70.5132C29.1764 70.6668 29.0832 70.8063 28.9656 70.9239C28.8481 71.0414 28.7086 71.1346 28.555 71.1982C28.4014 71.2618 28.2368 71.2945 28.0706 71.2945H11.8906C10.2129 71.2925 8.60447 70.6251 7.41814 69.4388C6.23181 68.2525 5.56447 66.6441 5.5625 64.9663V9.27883C5.56447 7.60111 6.23181 5.99268 7.41814 4.80635C8.60447 3.62002 10.2129 2.95268 11.8906 2.95071H45.2307C46.0622 2.94837 46.8858 3.11097 47.654 3.42909C48.4223 3.74722 49.1197 4.21455 49.7061 4.80404L56.8648 11.964C57.4543 12.5501 57.9216 13.2474 58.2399 14.0154C58.5581 14.7834 58.7209 15.6068 58.7188 16.4381V36.2914C58.7188 36.6271 58.5854 36.949 58.3481 37.1863C58.1107 37.4237 57.7888 37.557 57.4531 37.557C57.1175 37.557 56.7955 37.4237 56.5582 37.1863C56.3208 36.949 56.1875 36.6271 56.1875 36.2914V16.4381C56.1847 16.1582 56.1506 15.8793 56.0858 15.607H49.8594C48.8527 15.6059 47.8876 15.2055 47.1758 14.4937C46.464 13.7819 46.0636 12.8167 46.0625 11.8101V5.5806C45.7897 5.51729 45.5107 5.48421 45.2307 5.48196H11.8906C10.884 5.48306 9.91886 5.88344 9.20704 6.59525C8.49523 7.30707 8.09485 8.27218 8.09375 9.27883V64.9663C8.09485 65.973 8.49523 66.9381 9.20704 67.6499C9.91886 68.3617 10.884 68.7621 11.8906 68.7632H28.0706C28.2368 68.7632 28.4014 68.7959 28.555 68.8595C28.7086 68.923 28.8481 69.0163 28.9656 69.1338C29.0832 69.2513 29.1764 69.3909 29.24 69.5444C29.3036 69.698 29.3363 69.8626 29.3362 70.0288ZM48.5938 7.27117V11.8101C48.5941 12.1456 48.7275 12.4674 48.9648 12.7046C49.2021 12.9419 49.5238 13.0754 49.8594 13.0757H54.3974L48.5938 7.27117ZM75.0186 40.3318L72.7527 42.5972C72.905 43.2238 72.8923 43.8791 72.7158 44.4993C72.5394 45.1195 72.2051 45.6834 71.7458 46.1359L70.6339 47.2478L71.3935 48.0072C72.1908 48.8047 72.6392 49.8857 72.6406 51.0134C72.642 52.141 72.1962 53.2232 71.401 54.0226L62.1473 63.3274C62.0301 63.4453 61.8909 63.5389 61.7375 63.6029C61.5842 63.6669 61.4197 63.7001 61.2535 63.7006C61.0873 63.701 60.9227 63.6688 60.769 63.6056C60.6152 63.5424 60.4755 63.4496 60.3576 63.3324C60.2398 63.2152 60.1462 63.076 60.0822 62.9226C60.0181 62.7692 59.985 62.6048 59.9845 62.4386C59.984 62.2724 60.0163 62.1078 60.0795 61.954C60.1427 61.8003 60.2355 61.6606 60.3527 61.5427L69.6063 52.2372C69.9289 51.9127 70.1098 51.4737 70.1093 51.0161C70.1088 50.5586 69.9271 50.1199 69.6038 49.7961L68.8443 49.0372L43.1604 74.7205C43.0217 74.8596 42.8524 74.9643 42.666 75.0264L31.2754 78.8233C31.0524 78.8976 30.8131 78.9084 30.5843 78.8544C30.3556 78.8004 30.1464 78.6837 29.9802 78.5174C29.814 78.3512 29.6974 78.1419 29.6435 77.9131C29.5895 77.6843 29.6004 77.4451 29.6748 77.2221L33.4717 65.8315C33.5339 65.6453 33.6384 65.4761 33.7771 65.3372L62.3624 36.7518C62.8182 36.2987 63.3818 35.9684 64.0001 35.7931C64.6184 35.6177 65.2711 35.6024 65.8969 35.7485L68.1664 33.4795C69.0894 32.5984 70.3164 32.1067 71.5925 32.1067C72.8686 32.1067 74.0956 32.5984 75.0186 33.4795C75.9257 34.3891 76.435 35.6211 76.435 36.9056C76.435 38.1902 75.9257 39.4222 75.0186 40.3318ZM47.8523 54.8415L53.6562 60.6454L69.9561 44.3455C70.0737 44.2281 70.1669 44.0886 70.2306 43.9351C70.2942 43.7817 70.3269 43.6171 70.3269 43.451C70.3269 43.2848 70.2942 43.1203 70.2306 42.9668C70.1669 42.8133 70.0737 42.6739 69.9561 42.5565L65.9417 38.5415C65.7042 38.3044 65.3823 38.1713 65.0467 38.1715C64.7111 38.1716 64.3893 38.3049 64.152 38.5421L47.8523 54.8415ZM42.2656 72.036L51.8666 62.4351L46.0626 56.6311L36.4615 66.232L42.2656 72.036ZM32.876 75.6216L39.9229 73.2726L35.225 68.5747L32.876 75.6216ZM73.2289 35.2693C72.7883 34.848 72.2021 34.613 71.5925 34.613C70.9829 34.613 70.3968 34.848 69.9561 35.2693L68.1026 37.1224L71.3752 40.3955L73.2289 38.5421C73.6623 38.1077 73.9056 37.5192 73.9056 36.9057C73.9056 36.2921 73.6623 35.7036 73.2289 35.2693ZM43.4571 45.982H20.75C20.5838 45.982 20.4192 45.9493 20.2656 45.8857C20.112 45.8221 19.9725 45.7289 19.855 45.6114C19.7374 45.4938 19.6442 45.3543 19.5806 45.2007C19.517 45.0471 19.4843 44.8825 19.4844 44.7163V31.3306C19.2193 31.5228 18.8899 31.6044 18.5657 31.558C18.2416 31.5116 17.9482 31.3408 17.7478 31.0818L14.6851 27.1076C14.4803 26.8415 14.3896 26.5049 14.433 26.172C14.4763 25.839 14.6502 25.5369 14.9162 25.3321L29.8257 13.863C30.4895 13.3527 31.3033 13.076 32.1406 13.076C32.9779 13.076 33.7918 13.3527 34.4556 13.863L49.365 25.3321C49.6311 25.5369 49.8049 25.839 49.8482 26.172C49.8916 26.5049 49.8009 26.8415 49.5961 27.1076L46.5334 31.0818C46.4321 31.2134 46.3058 31.3237 46.1619 31.4065C46.0179 31.4893 45.859 31.543 45.6943 31.5644C45.5296 31.5858 45.3623 31.5745 45.202 31.5313C45.0416 31.488 44.8914 31.4136 44.7598 31.3123L44.7227 31.2838V44.7163C44.7228 44.8825 44.6901 45.0471 44.6265 45.2007C44.5629 45.3543 44.4697 45.4938 44.3521 45.6114C44.2346 45.7289 44.0951 45.8221 43.9415 45.8857C43.7879 45.9493 43.6233 45.982 43.4571 45.982ZM18.9813 28.5351L31.3694 19.004C31.5904 18.8337 31.8616 18.7414 32.1406 18.7414C32.4197 18.7414 32.6908 18.8337 32.9119 19.004L45.2999 28.5351L46.8177 26.5656L32.9131 15.8689C32.6914 15.6991 32.4199 15.6071 32.1406 15.6071C31.8613 15.6071 31.5899 15.6991 31.3682 15.8689L17.4636 26.5656L18.9813 28.5351ZM34.6719 34.5913H29.5352V43.4507H34.6719V34.5913ZM42.1915 43.4507V29.3365L32.1406 21.6038L22.0156 29.3934V43.4507H27.004V33.3257C27.0039 33.1595 27.0366 32.9949 27.1002 32.8413C27.1638 32.6877 27.257 32.5482 27.3746 32.4307C27.4921 32.3131 27.6316 32.2199 27.7852 32.1563C27.9388 32.0927 28.1034 32.06 28.2696 32.0601H35.9375C36.1037 32.06 36.2683 32.0927 36.4219 32.1563C36.5755 32.2199 36.715 32.3131 36.8325 32.4307C36.9501 32.5482 37.0433 32.6877 37.1069 32.8413C37.1705 32.9949 37.2032 33.1595 37.2031 33.3257V43.4507H42.1915Z" fill="white"/>
</svg>
