<svg width="82" height="82" viewBox="0 0 82 82" fill="none" xmlns="http://www.w3.org/2000/svg">
<rect x="63.8976" y="30.6497" width="11.7733" height="43.1041" rx="2" transform="rotate(44.6217 63.8976 30.6497)" fill="#4375B5"/>
<path d="M49.8594 30.7945H14.4219C14.0862 30.7945 13.7643 30.6611 13.5269 30.4238C13.2896 30.1864 13.1562 29.8645 13.1562 29.5288C13.1562 29.1932 13.2896 28.8712 13.5269 28.6339C13.7643 28.3965 14.0862 28.2632 14.4219 28.2632H49.8594C50.195 28.2632 50.517 28.3965 50.7543 28.6339C50.9917 28.8712 51.125 29.1932 51.125 29.5288C51.125 29.8645 50.9917 30.1864 50.7543 30.4238C50.517 30.6611 50.195 30.7945 49.8594 30.7945ZM14.4219 15.607H41C41.3357 15.607 41.6576 15.4736 41.8949 15.2363C42.1323 14.9989 42.2656 14.677 42.2656 14.3413C42.2656 14.0057 42.1323 13.6838 41.8949 13.4464C41.6576 13.209 41.3357 13.0757 41 13.0757H14.4219C14.0862 13.0757 13.7643 13.209 13.5269 13.4464C13.2896 13.6838 13.1562 14.0057 13.1562 14.3413C13.1562 14.677 13.2896 14.9989 13.5269 15.2363C13.7643 15.4736 14.0862 15.607 14.4219 15.607ZM49.8594 20.6695H27.0781C26.7425 20.6695 26.4205 20.8028 26.1832 21.0401C25.9458 21.2775 25.8125 21.5994 25.8125 21.9351C25.8125 22.2707 25.9458 22.5927 26.1832 22.83C26.4205 23.0674 26.7425 23.2007 27.0781 23.2007H49.8594C50.195 23.2007 50.517 23.0674 50.7543 22.83C50.9917 22.5927 51.125 22.2707 51.125 21.9351C51.125 21.5994 50.9917 21.2775 50.7543 21.0401C50.517 20.8028 50.195 20.6695 49.8594 20.6695ZM14.4219 23.2007H22.0156C22.3513 23.2007 22.6732 23.0674 22.9106 22.83C23.1479 22.5927 23.2812 22.2707 23.2812 21.9351C23.2812 21.5994 23.1479 21.2775 22.9106 21.0401C22.6732 20.8028 22.3513 20.6695 22.0156 20.6695H14.4219C14.0862 20.6695 13.7643 20.8028 13.5269 21.0401C13.2896 21.2775 13.1562 21.5994 13.1562 21.9351C13.1562 22.2707 13.2896 22.5927 13.5269 22.83C13.7643 23.0674 14.0862 23.2007 14.4219 23.2007ZM39.7344 38.3882C40.07 38.3882 40.392 38.2549 40.6293 38.0175C40.8667 37.7802 41 37.4582 41 37.1226C41 36.7869 40.8667 36.465 40.6293 36.2276C40.392 35.9903 40.07 35.857 39.7344 35.857H14.4219C14.0862 35.857 13.7643 35.9903 13.5269 36.2276C13.2896 36.465 13.1562 36.7869 13.1562 37.1226C13.1562 37.4582 13.2896 37.7802 13.5269 38.0175C13.7643 38.2549 14.0862 38.3882 14.4219 38.3882H39.7344ZM29.335 70.0288C29.3351 70.1951 29.3024 70.3597 29.2388 70.5133C29.1753 70.6669 29.0821 70.8064 28.9645 70.924C28.847 71.0415 28.7074 71.1347 28.5538 71.1983C28.4002 71.2619 28.2356 71.2946 28.0694 71.2945H11.8906C10.2129 71.2925 8.60447 70.6251 7.41814 69.4388C6.23181 68.2525 5.56447 66.6441 5.5625 64.9663V9.27883C5.56447 7.60111 6.23181 5.99267 7.41814 4.80635C8.60447 3.62002 10.2129 2.95268 11.8906 2.95071H45.2307C46.0622 2.94848 46.8859 3.11119 47.6541 3.42942C48.4223 3.74765 49.1198 4.21507 49.7061 4.80464L56.8648 11.9633C57.4544 12.5497 57.9218 13.2472 58.24 14.0154C58.5583 14.7836 58.721 15.6073 58.7188 16.4388V36.292C58.7188 36.6277 58.5854 36.9496 58.3481 37.1869C58.1107 37.4243 57.7888 37.5576 57.4531 37.5576C57.1175 37.5576 56.7955 37.4243 56.5582 37.1869C56.3208 36.9496 56.1875 36.6277 56.1875 36.292V16.4388C56.1852 16.1587 56.1521 15.8798 56.0888 15.607H49.8594C48.8527 15.6059 47.8876 15.2055 47.1758 14.4937C46.464 13.7818 46.0636 12.8167 46.0625 11.8101V5.58068C45.7897 5.51734 45.5107 5.48423 45.2307 5.48196H11.8906C10.884 5.48306 9.91886 5.88343 9.20704 6.59525C8.49523 7.30706 8.09485 8.27217 8.09375 9.27883V64.9663C8.09485 65.973 8.49523 66.9381 9.20704 67.6499C9.91886 68.3617 10.884 68.7621 11.8906 68.7632H28.0694C28.2356 68.7631 28.4002 68.7958 28.5538 68.8594C28.7074 68.9229 28.847 69.0161 28.9645 69.1337C29.0821 69.2512 29.1753 69.3908 29.2388 69.5444C29.3024 69.698 29.3351 69.8626 29.335 70.0288ZM48.5938 7.27163V11.8101C48.594 12.1457 48.7274 12.4675 48.9647 12.7048C49.202 12.9421 49.5238 13.0755 49.8594 13.0757H54.3978L48.5938 7.27163ZM75.0186 40.3311L72.7498 42.5999C72.8964 43.226 72.8811 43.879 72.7055 44.4975C72.5298 45.116 72.1995 45.6796 71.7458 46.1352L70.6334 47.2476L71.3935 48.0077C72.1908 48.8049 72.6393 49.8858 72.6407 51.0133C72.642 52.1408 72.1962 53.2227 71.401 54.022L62.1473 63.3274C62.0301 63.4453 61.8909 63.5389 61.7375 63.6029C61.5842 63.6669 61.4197 63.7001 61.2535 63.7006C61.0873 63.701 60.9227 63.6688 60.769 63.6056C60.6152 63.5424 60.4755 63.4496 60.3576 63.3324C60.2398 63.2152 60.1462 63.076 60.0822 62.9226C60.0181 62.7692 59.985 62.6048 59.9845 62.4386C59.984 62.2724 60.0163 62.1078 60.0795 61.954C60.1427 61.8003 60.2355 61.6606 60.3527 61.5427L69.6063 52.2372C69.7664 52.0773 69.8933 51.8873 69.9797 51.6781C70.066 51.469 70.1101 51.2448 70.1094 51.0185C70.1082 50.5608 69.9266 50.122 69.6039 49.7974L68.8438 49.0373L43.1604 74.7205C43.0217 74.8594 42.8524 74.9639 42.666 75.0258L31.2754 78.8227C31.1464 78.8662 31.0112 78.8884 30.875 78.8882C30.6745 78.8882 30.4768 78.8405 30.2983 78.7491C30.1198 78.6577 29.9656 78.5252 29.8484 78.3624C29.7312 78.1997 29.6543 78.0115 29.6241 77.8132C29.594 77.6149 29.6114 77.4123 29.6749 77.2221L33.4718 65.8315C33.5336 65.6452 33.6382 65.4759 33.7771 65.3372L62.3624 36.7518C62.8179 36.298 63.3815 35.9678 64.0001 35.7921C64.6186 35.6164 65.2716 35.6011 65.8977 35.7477L68.1664 33.4789C69.0756 32.5725 70.3072 32.064 71.591 32.065C72.8748 32.0659 74.1057 32.5763 75.0134 33.4841C75.9212 34.3919 76.4316 35.6228 76.4326 36.9065C76.4335 38.1903 75.925 39.422 75.0186 40.3311ZM32.876 75.6216L39.9229 73.2726L35.225 68.5747L32.876 75.6216ZM67.0541 47.2476L61.25 41.4435L36.4615 66.232L42.2656 72.036L67.0541 47.2476ZM68.8438 45.4579L69.9561 44.3455C70.193 44.108 70.326 43.7862 70.326 43.4507C70.326 43.1152 70.193 42.7934 69.9561 42.5559L65.9417 38.5415C65.8242 38.4239 65.6847 38.3307 65.5311 38.267C65.3776 38.2034 65.213 38.1707 65.0468 38.1707C64.8806 38.1707 64.7161 38.2034 64.5625 38.267C64.409 38.3307 64.2695 38.4239 64.152 38.5415L63.0397 39.6538L68.8438 45.4579ZM73.2289 35.2686C72.7946 34.8353 72.2061 34.592 71.5925 34.592C70.979 34.592 70.3905 34.8353 69.9561 35.2686L68.1022 37.1226L71.375 40.3954L73.2289 38.5415C73.6623 38.1071 73.9056 37.5186 73.9056 36.9051C73.9056 36.2915 73.6623 35.703 73.2289 35.2686ZM28.7887 51.4202C28.965 52.1359 29.0574 52.8696 29.0643 53.6066C29.1125 54.8403 28.7486 56.0548 28.0299 57.0587C27.6159 57.579 27.0843 57.9936 26.4787 58.2682C25.8732 58.5428 25.211 58.6696 24.5469 58.6382C22.2344 58.6382 20.556 56.694 20.556 54.0169C20.5418 52.6756 20.9949 51.3713 21.8377 50.3276C22.5948 49.4095 23.6585 48.7962 24.8324 48.601C24.413 47.8681 23.8229 47.2472 23.1121 46.7913C22.4014 46.3353 21.591 46.0576 20.75 45.982C15.8247 45.982 15.6875 57.2589 15.6875 57.3726C15.6875 57.7082 15.5542 58.0302 15.3168 58.2675C15.0795 58.5049 14.7575 58.6382 14.4219 58.6382C14.0862 58.6382 13.7643 58.5049 13.5269 58.2675C13.2896 58.0302 13.1562 57.7082 13.1562 57.3726C13.1562 56.804 13.2428 43.4507 20.75 43.4507C23.8782 43.4507 26.3477 45.8448 27.7579 48.6282C29.2307 48.7346 30.6521 49.2145 31.8879 50.0227C33.1238 50.8308 34.1334 51.9404 34.8214 53.2469C35.4999 51.8442 36.5558 50.6582 37.8707 49.822C39.1856 48.9859 40.7075 48.5327 42.2656 48.5132C42.6013 48.5132 42.9232 48.6465 43.1606 48.8839C43.3979 49.1213 43.5312 49.4432 43.5312 49.7788C43.5312 50.1145 43.3979 50.4364 43.1606 50.6738C42.9232 50.9111 42.6013 51.0445 42.2656 51.0445C37.1005 51.0445 35.9659 57.3169 35.9202 57.5839C35.8701 57.8984 35.7019 58.1819 35.45 58.3767C35.198 58.5714 34.8813 58.6628 34.5643 58.632C34.2485 58.6056 33.9542 58.4614 33.7397 58.2281C33.5252 57.9948 33.4062 57.6895 33.4062 57.3726C33.3885 56.0133 32.928 54.6968 32.0948 53.6227C31.2616 52.5486 30.1009 51.7754 28.7887 51.4202ZM26.5331 53.6066C26.5145 52.7329 26.3542 51.868 26.0585 51.0457C25.9967 51.0445 25.9361 51.0445 25.8731 51.0445C25.4797 51.0246 25.0871 51.0952 24.7254 51.251C24.3636 51.4068 24.0425 51.6436 23.7868 51.9431C23.3237 52.5343 23.0769 53.2661 23.0872 54.017C23.0872 54.7931 23.395 56.107 24.5469 56.107C24.8244 56.1322 25.1038 56.0907 25.3621 55.986C25.6203 55.8813 25.8497 55.7164 26.0313 55.505C26.3994 54.9431 26.5755 54.277 26.5331 53.6066Z" fill="white"/>
</svg>
