<svg width="82" height="82" viewBox="0 0 82 82" fill="none" xmlns="http://www.w3.org/2000/svg">
<path d="M5.77479 11.3733C5.99605 10.0214 7.48032 9.28702 8.68925 9.93138L20.6957 16.3308C21.5913 16.8082 21.9874 17.8808 21.617 18.8257L11.823 43.81C11.4203 44.8372 10.262 45.3443 9.23418 44.9434L2.32648 42.2491C1.44689 41.906 0.927019 40.9945 1.07951 40.0628L5.77479 11.3733Z" fill="#4375B5"/>
<path d="M75.6055 11.4164C75.3696 10.0531 73.854 9.3354 72.6498 10.0168L61.5218 16.3135C60.6552 16.8039 60.2813 17.857 60.6447 18.7841L70.4425 43.7782C70.85 44.8177 72.0297 45.3223 73.0629 44.8989L79.3611 42.3182C80.2293 41.9625 80.7335 41.051 80.5735 40.1265L75.6055 11.4164Z" fill="#4375B5"/>
<path d="M43.5917 68.6654C42.2786 68.6654 40.9476 68.2021 39.6896 67.2986C39.6161 67.2456 39.5476 67.2086 39.5002 67.187C35.1093 68.0593 33.3399 67.3407 31.5684 63.7604C28.486 63.5605 26.5084 61.91 25.8134 58.9479C23.321 58.3823 21.6914 56.7521 21.0608 54.2027C18.7364 53.6164 17.2056 52.1308 16.2788 49.5842C16.0878 49.059 15.3769 48.4991 14.6897 47.9574C14.6529 47.9285 14.6161 47.8992 14.5791 47.8702C13.9319 48.8181 13.4142 49.384 12.6446 49.6449C11.6085 49.996 10.5973 49.6301 8.76187 48.9668C8.35304 48.8188 7.94627 48.6668 7.53965 48.5147C6.80594 48.2405 6.04704 47.9567 5.3017 47.7087C3.71086 47.177 2.98672 45.9748 3.26094 44.3229C3.8356 40.862 4.40805 37.4011 4.98049 33.9401C5.88475 28.4729 6.81978 22.8197 7.74849 17.2602C7.94937 16.0573 8.44671 15.2514 9.22666 14.8651C10.0175 14.4732 10.9851 14.5738 12.1026 15.1635C14.4927 16.426 16.913 17.7238 19.2534 18.9787C20.148 19.4584 21.0425 19.938 21.9376 20.417C22.9743 20.9719 23.8693 21.451 24.1999 22.3685C24.4846 23.1582 24.2526 23.9558 23.8934 24.9169C25.3539 25.3471 26.7713 25.3141 28.1985 24.8209C32.2564 23.4202 36.219 23.3897 39.9853 24.7284C43.8752 22.9869 47.8617 22.7705 51.8386 24.0886C53.7803 24.7315 55.5423 25.0708 57.2215 25.125C57.5112 25.0808 57.7999 25.0176 58.0856 24.9357C57.701 23.9281 57.5177 23.1576 57.8137 22.382C58.1898 21.3969 59.1645 20.8847 60.6399 20.1096C62.3637 19.2057 64.1096 18.2683 65.7978 17.3617C67.1202 16.6516 68.4877 15.9173 69.8382 15.2026C70.2703 14.9732 71.5893 14.273 72.7778 14.8599C73.9514 15.4393 74.1891 16.8621 74.2672 17.3297C75.0552 22.0452 75.8487 26.8404 76.6162 31.4776C77.3209 35.7351 78.0254 39.9925 78.7354 44.2484C79.0182 45.9488 78.2744 47.1875 76.6413 47.7369C75.5331 48.1087 74.4103 48.5201 73.3245 48.9182C72.8255 49.101 72.3268 49.2838 71.827 49.4637C69.9821 50.1295 68.9181 50.2792 67.7652 48.6848C67.1751 48.9938 66.586 49.3025 66.0025 49.6089C65.9866 49.6178 65.9704 49.6262 65.9542 49.6343L65.9133 49.6558C65.961 53.9754 64.781 55.781 61.2297 56.7786C60.5005 59.6955 58.548 61.3691 55.5377 61.6469C55.5344 61.652 55.5314 61.6569 55.5292 61.6611C54.131 64.6503 52.0729 65.848 48.8682 65.534C48.819 65.5534 48.7524 65.592 48.7174 65.6223C47.6654 67.2412 46.2529 68.2587 44.6284 68.5679C44.2855 68.633 43.939 68.6654 43.5917 68.6654ZM39.6426 67.1582C39.6414 67.1585 39.6407 67.1587 39.6395 67.159C39.6405 67.1587 39.6416 67.1585 39.6426 67.1582ZM39.5201 64.8147C40.1672 64.8147 40.7504 65.1578 41.067 65.3868C42.1174 66.141 43.1969 66.4412 44.1879 66.253C45.173 66.0655 46.061 65.396 46.7554 64.3169C47.2102 63.6063 48.2307 63.0963 49.0326 63.1822C51.3007 63.4219 52.402 62.7857 53.3963 60.66C53.6016 60.2201 54.2264 59.3713 55.1183 59.3163C57.4454 59.1693 58.6627 58.0307 59.064 55.6252C59.1424 55.1555 59.4958 54.7791 59.9598 54.6713C62.9709 53.9726 63.7064 53.232 63.5392 48.9982C63.5311 48.7916 63.5774 48.5911 63.6681 48.4143C63.5865 48.3266 63.5051 48.239 63.4233 48.1512C62.3272 46.9738 61.1935 45.7561 60.0455 44.5875C58.5508 43.0663 57.0112 41.5332 55.5226 40.0505C54.197 38.7303 52.8262 37.3651 51.4879 36.0095C49.3056 33.7982 46.7918 33.2387 43.8031 34.2995C42.0483 34.9223 40.2694 35.583 38.5491 36.2218C37.4557 36.6279 36.325 37.0477 35.209 37.455C31.2467 38.9006 29.464 37.2371 28.6664 35.5868C28.1294 34.4789 27.3213 31.6536 31.4155 29.3787C32.0695 29.0156 32.7221 28.6508 33.3745 28.286C34.5306 27.6397 35.7125 26.9789 36.9029 26.3285C34.3452 25.8558 31.7267 26.0957 28.9672 27.0481C26.6459 27.8501 24.2657 27.7289 21.893 26.6878C21.3161 26.4347 21.0404 25.7725 21.2672 25.1848C21.3964 24.8502 21.4638 24.6742 21.5313 24.498C21.6652 24.1489 21.9314 23.454 21.9662 23.1776C21.7643 22.9973 21.1394 22.6627 20.8251 22.4945C19.9297 22.0155 19.0344 21.5354 18.1395 21.0555C15.8021 19.8023 13.3852 18.5064 11.0019 17.2474C10.5782 17.0237 10.3583 16.9901 10.2786 16.9865C10.2367 17.0491 10.1424 17.2285 10.0723 17.6484C9.14389 23.2062 8.20901 28.8585 7.3049 34.3248C6.7323 37.7862 6.15985 41.2475 5.5852 44.7087C5.50258 45.2059 5.56738 45.3131 6.04675 45.4732C6.83142 45.7342 7.61093 46.0256 8.36467 46.3075C8.76364 46.4569 9.16275 46.6059 9.56318 46.751C10.6277 47.1358 11.6337 47.5003 11.8883 47.4131C12.1421 47.3272 12.7181 46.4284 13.3278 45.477C13.5177 45.1806 13.831 44.9835 14.1806 44.9419C14.5298 44.9003 14.8808 45.0158 15.1352 45.2591C15.4302 45.5411 15.7788 45.8158 16.1479 46.1066C17.0941 46.8523 18.0726 47.6233 18.4929 48.7785C19.2282 50.7989 20.3139 51.7435 22.2403 52.0389C22.7487 52.1168 23.1476 52.5154 23.2261 53.0237C23.5575 55.1705 24.5635 56.2989 26.4879 56.6827C27.1257 56.8128 27.9056 57.4294 28.0618 58.2008C28.5178 60.4569 29.8286 61.4572 32.3111 61.4245H32.3237C32.7857 61.4245 33.2055 61.6946 33.3966 62.1159C34.8381 65.2941 35.4854 65.6008 39.1693 64.85C39.2877 64.8256 39.4049 64.8147 39.5201 64.8147ZM48.7385 65.5896C48.738 65.5902 48.7376 65.591 48.7371 65.5917C48.7376 65.5908 48.738 65.5902 48.7385 65.5896ZM48.7831 65.5251C48.7838 65.5251 48.7846 65.5253 48.7854 65.5253C48.7844 65.5253 48.7838 65.5251 48.7831 65.5251ZM55.2682 61.6676C55.2672 61.6678 55.2663 61.6678 55.2651 61.6679C55.2662 61.6678 55.2672 61.6678 55.2682 61.6676ZM68.1811 45.9589C68.5864 45.9589 68.9796 46.1685 69.198 46.5409C69.2979 46.711 69.3892 46.8644 69.475 47.0037C69.7099 47.3835 69.8345 47.5321 69.8924 47.5894C70.1348 47.5694 70.7758 47.3381 71.028 47.2471C71.5242 47.0683 72.019 46.8872 72.5139 46.7057C73.6147 46.3024 74.7529 45.8853 75.8911 45.5034C76.4321 45.3215 76.5051 45.1996 76.4113 44.6355C75.7013 40.3791 74.9966 36.1208 74.2916 31.8623C73.5243 27.226 72.7308 22.4317 71.9432 17.7179C71.8679 17.2681 71.7725 17.0658 71.7254 16.9883C71.6302 16.9973 71.3914 17.046 70.9419 17.2846C69.5964 17.9967 68.2322 18.7292 66.9128 19.4376C65.2195 20.3469 63.4682 21.2871 61.7351 22.1959C61.1279 22.515 60.2209 22.9914 60.0238 23.2203C60.0325 23.4916 60.3611 24.2932 60.6273 24.9427C60.826 25.4403 60.6533 25.859 60.5882 26.0166L60.5762 26.046C60.4742 26.3725 60.2352 26.6388 59.9209 26.7752C59.1297 27.1186 58.3069 27.352 57.4748 27.4694C57.4354 27.4756 57.3954 27.4799 57.3549 27.4821C57.315 27.4844 57.2759 27.4847 57.2368 27.4828C55.3006 27.4307 53.2921 27.0519 51.0978 26.3256C47.5659 25.1549 44.0163 25.4036 40.5476 27.0649C40.5433 27.0669 40.5389 27.069 40.5346 27.071C40.3299 27.1681 40.1289 27.2694 39.932 27.3746C38.116 28.3352 36.2905 29.3558 34.5252 30.3429C33.8707 30.7088 33.2161 31.0748 32.5603 31.4389C29.9721 32.877 30.5439 34.0568 30.788 34.5606C31.0755 35.1554 31.6098 36.2601 34.4019 35.2416C35.5116 34.8367 36.639 34.418 37.7292 34.0132C39.4573 33.3714 41.2443 32.7078 43.0153 32.0791C46.8999 30.7004 50.3147 31.466 53.1655 34.3544C54.4965 35.7028 55.8637 37.0644 57.1859 38.3813C58.6791 39.8683 60.2229 41.4061 61.7267 42.9363C62.8971 44.1277 64.0416 45.3572 65.1483 46.5461C65.3259 46.737 65.5033 46.9274 65.6804 47.1174C66.3292 46.7772 66.9836 46.4346 67.6365 46.0934C67.8101 46.0022 67.997 45.9589 68.1811 45.9589Z" fill="white"/>
<path d="M68.4725 48.8002C68.0055 48.8002 67.5636 48.5208 67.3788 48.0611L58.4438 25.8288C58.2012 25.2249 58.4939 24.5388 59.0975 24.2962C59.7018 24.0535 60.3875 24.3465 60.63 24.95L69.5651 47.1823C69.8076 47.7861 69.515 48.4722 68.9113 48.7148C68.7675 48.7728 68.6186 48.8002 68.4725 48.8002Z" fill="white"/>
<path d="M14.321 47.2892C14.1779 47.2892 14.0322 47.2628 13.891 47.2075C13.2852 46.9698 12.9869 46.286 13.2246 45.6803L21.2701 25.1786C21.5078 24.5728 22.1916 24.2745 22.7973 24.5122C23.403 24.7499 23.7014 25.4336 23.4637 26.0394L15.4182 46.5412C15.2359 47.0054 14.7914 47.2892 14.321 47.2892Z" fill="white"/>
<path d="M60.2261 56.9971C59.9245 56.9971 59.6231 56.8821 59.393 56.6521L49.3994 46.6583C48.9393 46.1981 48.9393 45.4521 49.3994 44.992C49.8598 44.532 50.6055 44.5323 51.0656 44.992L61.0593 54.9858C61.5193 55.4461 61.5193 56.192 61.0593 56.6521C60.8292 56.8821 60.5276 56.9971 60.2261 56.9971Z" fill="white"/>
<path d="M54.9379 61.7718C54.6363 61.7718 54.3348 61.6567 54.1048 61.4267L43.186 50.5079C42.7259 50.0477 42.7259 49.3019 43.186 48.8417C43.6462 48.3817 44.392 48.3817 44.8523 48.8417L55.771 59.7605C56.2311 60.2207 56.2311 60.9665 55.771 61.4267C55.5409 61.6567 55.2395 61.7718 54.9379 61.7718Z" fill="white"/>
<path d="M48.3222 65.667C48.029 65.667 47.7354 65.5582 47.5069 65.3391L35.8315 54.1418C35.362 53.6914 35.3463 52.9456 35.7967 52.476C36.2472 52.0062 36.993 51.9909 37.4627 52.4412L49.138 63.6385C49.6076 64.0889 49.6233 64.8347 49.1727 65.3043C48.9414 65.5457 48.632 65.667 48.3222 65.667Z" fill="white"/>
<path d="M39.4047 67.1825C39.1033 67.1825 38.8017 67.0675 38.5716 66.8375C38.1114 66.3773 38.1114 65.6315 38.5716 65.1712L41.118 62.6249C41.5953 62.1477 41.8514 61.5131 41.8393 60.8382C41.8271 60.1634 41.5483 59.5384 41.0541 59.0786C40.0981 58.1892 38.6114 58.2007 37.6693 59.1049L33.1396 63.4526C32.6735 63.9001 31.9342 63.8885 31.4822 63.4271C31.0301 62.9657 31.0339 62.2262 31.4908 61.7694L35.7421 57.5181C36.2343 57.0259 36.4885 56.3717 36.4578 55.6761C36.427 54.9806 36.1161 54.3516 35.5824 53.9046C34.6014 53.0831 33.1794 53.1464 32.2748 54.0507L30.6911 55.6344C30.6881 55.6374 30.6852 55.6403 30.6824 55.6433L27.457 58.8686C26.9969 59.3286 26.2509 59.3285 25.7909 58.8686C25.3306 58.4083 25.3306 57.6625 25.7909 57.2023L29.0217 53.9716C29.45 53.5402 29.6702 52.9687 29.6416 52.361C29.613 51.7509 29.3381 51.2004 28.8677 50.811C28.0111 50.1014 26.772 50.1597 25.9855 50.9463L22.8952 54.0367C22.4351 54.4966 21.6892 54.4966 21.2291 54.0367C20.7689 53.5766 20.7689 52.8307 21.2291 52.3704L24.3195 49.2801C25.9707 47.6287 28.5721 47.5069 30.3706 48.996C31.1383 49.6316 31.669 50.5041 31.8879 51.4637C33.5527 50.6381 35.5891 50.8366 37.0954 52.098C38.127 52.9617 38.7526 54.2281 38.8121 55.5723C38.8199 55.7478 38.8179 55.9231 38.8064 56.097C40.1667 55.9352 41.5848 56.3537 42.6595 57.3539C43.6262 58.2533 44.1718 59.4758 44.1955 60.7961C44.2192 62.1164 43.7182 63.3577 42.7845 64.2914L40.238 66.8378C40.0078 67.0675 39.7062 67.1825 39.4047 67.1825Z" fill="white"/>
</svg>
