<svg width="82" height="82" viewBox="0 0 82 82" fill="none" xmlns="http://www.w3.org/2000/svg">
<path d="M30.6905 14.1086C31.1082 14.2423 31.388 14.6303 31.3576 15.0678C31.2356 16.8251 30.6959 21.4775 28.3211 26.1783C26.1229 30.5296 22.1654 34.0613 20.1883 35.6515C19.4942 36.2097 18.5205 36.1777 17.8422 35.6004C15.7624 33.8303 11.4654 29.9957 9.99882 27.3438C8.39065 24.4359 7.60327 17.5613 7.37113 15.1705C7.32403 14.6855 7.63776 14.2469 8.10921 14.1235C10.0222 13.6228 14.8639 12.3158 17.7791 11.1766C18.8015 10.7771 19.9364 10.6642 20.9817 10.999L30.6905 14.1086Z" fill="#4375B5"/>
<path d="M20.0136 31.3468V64.6058C20.0136 67.4286 22.2227 69.6377 25.0454 69.6377H63.7045C66.5273 69.6377 68.7364 67.4286 68.7364 64.6058V7.90584C68.7364 5.08311 66.5273 2.87402 63.7045 2.87402H25.0454C22.2227 2.87402 20.0136 5.08311 20.0136 7.90584V9.62402M34.3727 10.2377H61.4955M45.7864 17.2331H61.4955M33.5136 17.2331H40.5091M33.5136 24.3513H61.4955M48.2409 31.3468H61.4955M28.9727 31.3468H43.0864M40.6318 38.4649H61.4955M28.9727 38.4649H35.2318M55.6045 45.5831H61.4955M28.9727 45.5831H50.3273M28.9727 52.5786H44.4364M41.7364 59.2058C41.7364 59.2058 41.7364 65.9558 46.2773 59.2058C46.2773 59.2058 46.4 64.7286 55.4818 61.1695M12.2818 71.2331L8.59999 78.9649L5.0409 71.2331M12.2818 71.2331H4.91817H5.0409M12.2818 71.2331V37.7286M5.0409 71.2331V37.7286C5.0409 36.9922 5.40908 36.2558 6.14545 36.0104C7.7409 35.3968 9.45908 35.3968 11.1773 36.0104C11.7909 36.2558 12.2818 36.9922 12.2818 37.7286M12.2818 37.7286V40.5513H4.91817V37.7286C4.91817 36.9922 5.40908 36.2558 6.02272 36.0104C7.7409 35.3968 9.45908 35.3968 11.0545 36.0104C11.7909 36.2558 12.2818 36.9922 12.2818 37.7286ZM11.4227 20.5468L14 23.0013L20.8727 16.0058M77.8182 17.9695L72.5409 74.424C72.2955 77.2468 69.8409 79.2104 67.0182 78.9649L28.4818 75.4058C25.6591 75.1604 23.6954 72.7058 23.9409 69.8831V69.6377C24.1864 69.6377 24.5545 69.7604 24.9227 69.7604H63.5818C66.4045 69.7604 68.6136 67.4286 68.6136 64.7286V12.0786L73.1545 12.4468C76.1 12.6922 78.1864 15.1468 77.8182 17.9695ZM28.2364 11.7104C28.2364 21.1604 23.45 29.2604 16.2091 34.0467C8.96817 29.2604 4.05908 21.0377 4.05908 11.8331V11.7104C5.77726 11.5877 7.37272 11.2195 8.96817 10.8513C11.5454 10.1149 14 9.01039 16.2091 7.53766C18.4182 9.01039 20.75 10.1149 23.3273 10.7286C24.9227 11.2195 26.6409 11.5877 28.2364 11.7104Z" stroke="white" stroke-width="2.5" stroke-miterlimit="10" stroke-linecap="round" stroke-linejoin="round"/>
</svg>
