<svg width="82" height="82" viewBox="0 0 82 82" fill="none" xmlns="http://www.w3.org/2000/svg">
<g clip-path="url(#clip0_488_904)">
<path fill-rule="evenodd" clip-rule="evenodd" d="M48.8937 52.4681C47.7891 52.4681 46.8937 53.3636 46.8937 54.4681V62.3253C46.8937 62.4026 46.8981 62.4789 46.9066 62.5539C46.898 62.6795 46.8937 62.8063 46.8937 62.934C46.8937 65.9756 49.3594 68.4413 52.4009 68.4413C55.4425 68.4413 57.9081 65.9756 57.9081 62.934C57.9081 62.8063 57.9038 62.6795 57.8952 62.5539C57.9038 62.4789 57.9081 62.4026 57.9081 62.3253V54.4681C57.9081 53.3636 57.0127 52.4681 55.9081 52.4681H48.8937Z" fill="#4375B5"/>
<path d="M23.8388 35.0198H75.9642C77.493 35.0198 78.8719 35.6431 79.8737 36.6442V36.6537C80.8748 37.6554 81.4987 39.0343 81.4987 40.5537V75.8843C81.4987 77.403 80.8748 78.7914 79.8737 79.7925C78.8719 80.7949 77.493 81.4176 75.9642 81.4176H23.8388C22.3194 81.4176 20.931 80.7949 19.9299 79.7925C18.9281 78.7914 18.3048 77.4119 18.3048 75.8843V40.5537C18.3048 39.0343 18.9281 37.6459 19.9299 36.6442C20.9316 35.6431 22.3194 35.0198 23.8388 35.0198ZM75.9642 37.5498H23.8388C23.0129 37.5498 22.2662 37.8921 21.722 38.4363C21.1771 38.9812 20.8348 39.7279 20.8348 40.5537V75.8843C20.8348 76.7101 21.1771 77.465 21.722 78.0099C22.2656 78.5535 23.0129 78.8876 23.8388 78.8876H75.9642C76.79 78.8876 77.5449 78.5541 78.0898 78.0099C78.634 77.465 78.9687 76.7095 78.9687 75.8843V40.5537C78.9687 39.7279 78.6346 38.973 78.0898 38.4281V38.437C77.5449 37.8927 76.79 37.5498 75.9642 37.5498Z" fill="white"/>
<path d="M39.3344 24.4701H60.478C61.6816 24.4701 62.7877 24.9618 63.5787 25.761C64.3691 26.5603 64.8703 27.6588 64.8703 28.8618V36.2841V37.5491H63.6047H58.2644H57V36.2841V32.174H42.813V36.2847V37.5497H41.5474H36.2071H34.9421V36.2847V28.8618C34.9421 27.6588 35.4338 26.5514 36.2242 25.761C37.0234 24.9618 38.1226 24.4701 39.3344 24.4701ZM60.4773 27.0001H39.3344C38.8244 27.0001 38.3593 27.2102 38.0163 27.5532C37.6828 27.8873 37.4727 28.3524 37.4727 28.8618V35.0191H40.283V30.9083V29.644H41.548H58.2644H59.53V30.9083V35.0197H62.3403V28.8624C62.3403 28.3524 62.1296 27.8873 61.7961 27.5538H61.7866C61.4525 27.2108 60.9874 27.0001 60.4773 27.0001Z" fill="white"/>
<path d="M14.475 69.0764C15.1692 69.0764 15.74 69.6377 15.74 70.3408C15.74 71.0343 15.1692 71.6051 14.475 71.6051H4.29498C3.25843 71.6051 2.30984 71.1748 1.61565 70.4901V70.4813C0.930313 69.7959 0.5 68.848 0.5 67.8019V4.21378C0.5 3.17723 0.930313 2.22864 1.61565 1.53508C2.30035 0.849746 3.24894 0.419434 4.29498 0.419434H39.8787C40.4235 0.419434 40.9329 0.525113 41.4082 0.73584C41.8739 0.946566 42.2954 1.25348 42.6732 1.64899L52.2217 11.8651C52.2476 11.8917 52.2653 11.9176 52.2919 11.9442C52.5982 12.2866 52.8184 12.665 52.9766 13.0599C53.1348 13.4908 53.2228 13.9471 53.2228 14.4305V20.6321C53.2228 21.3345 52.652 21.8971 51.9578 21.8971C51.2554 21.8971 50.6839 21.3345 50.6839 20.6321V14.4305C50.6839 14.2546 50.6669 14.097 50.6137 13.9559C50.5612 13.842 50.4998 13.7363 50.4207 13.6307C50.403 13.6136 50.3846 13.6047 50.3675 13.587L40.8279 3.37087C40.6956 3.23039 40.5469 3.12471 40.3887 3.04561C40.24 2.98422 40.0729 2.94942 39.8793 2.94942H4.29498C3.95263 2.94942 3.63622 3.0899 3.40777 3.32721L3.39891 3.31835C3.17047 3.54616 3.02998 3.87143 3.02998 4.21378V67.8019C3.02998 68.1532 3.17047 68.4696 3.39891 68.698L3.40777 68.7069C3.63622 68.9271 3.95199 69.0764 4.29498 69.0764H14.475Z" fill="white"/>
<path d="M45.3164 58.0788L23.6109 53.9579C22.1441 53.6858 20.7905 53.0448 19.8166 52.0696C18.8845 51.1387 18.3048 49.9181 18.3048 48.4506H20.8348C20.8348 49.1973 21.1341 49.8124 21.6081 50.287C22.2143 50.8837 23.1015 51.297 24.0767 51.4811L45.7822 55.6007L45.3164 58.0788ZM81.4981 48.4506C81.4981 49.9174 80.9184 51.1299 79.9869 52.0608V52.0696C79.0118 53.0448 77.6595 53.6864 76.2015 53.9579L54.4954 58.113L54.0214 55.6361L75.7268 51.4811C76.7109 51.2881 77.5981 50.8844 78.2037 50.287C78.6783 49.8124 78.9681 49.1966 78.9681 48.4506H81.4981Z" fill="white"/>
<path d="M32.7374 11.724C33.4398 11.724 34.0024 12.2866 34.0024 12.989C34.0024 13.6832 33.4398 14.254 32.7374 14.254H15.0819C14.3789 14.254 13.8163 13.6832 13.8163 12.989C13.8163 12.2866 14.3789 11.724 15.0819 11.724H32.7374ZM9.05501 11.724C9.75806 11.724 10.3295 12.2866 10.3295 12.989C10.3295 13.6832 9.7587 14.254 9.05501 14.254H8.10706C7.41223 14.254 6.84143 13.6832 6.84143 12.989C6.84143 12.2866 7.41223 11.724 8.10706 11.724H9.05501Z" fill="white"/>
<path d="M24.4184 23.2051C25.1126 23.2051 25.6834 23.7752 25.6834 24.4701C25.6834 25.1725 25.1126 25.7344 24.4184 25.7344H15.0813C14.3789 25.7344 13.8163 25.1725 13.8163 24.4701C13.8163 23.7759 14.3789 23.2051 15.0813 23.2051H24.4184ZM9.05564 23.2051C9.75806 23.2051 10.3295 23.7752 10.3295 24.4701C10.3295 25.1725 9.7587 25.7344 9.05564 25.7344H8.10706C7.41286 25.7344 6.84143 25.1725 6.84143 24.4701C6.84143 23.7759 7.41223 23.2051 8.10706 23.2051H9.05564Z" fill="white"/>
<path d="M32.7374 17.4686C33.4398 17.4686 34.0024 18.0312 34.0024 18.7336C34.0024 19.4272 33.4398 19.9986 32.7374 19.9986H15.0819C14.3789 19.9986 13.8163 19.4278 13.8163 18.7336C13.8163 18.0312 14.3789 17.4686 15.0819 17.4686H32.7374ZM9.05501 17.4686C9.75806 17.4686 10.3295 18.0312 10.3295 18.7336C10.3295 19.4272 9.7587 19.9986 9.05501 19.9986H8.10706C7.41223 19.9986 6.84143 19.4278 6.84143 18.7336C6.84143 18.0312 7.41223 17.4686 8.10706 17.4686H9.05501Z" fill="white"/>
<path d="M41.1791 0.884551L52.6944 13.3845C53.1601 13.8939 53.1342 14.6932 52.6153 15.1671C52.378 15.3867 52.0717 15.5013 51.7635 15.5013H43.8318C42.4795 15.5013 41.2582 14.9475 40.371 14.061C40.345 14.0344 40.3178 14.0084 40.2919 13.9819C39.4483 13.1029 38.9301 11.9088 38.9301 10.5995V1.68443C38.9301 0.99023 39.4926 0.419434 40.1957 0.419434C40.5899 0.419434 40.9418 0.603582 41.1791 0.884551ZM48.8829 12.9719L41.46 4.92506V10.6001C41.46 11.2323 41.7062 11.8031 42.1017 12.2246C42.1188 12.2423 42.1371 12.26 42.1549 12.2777C42.5852 12.708 43.1819 12.9713 43.8318 12.9713L48.8829 12.9719Z" fill="white"/>
<path d="M45.7296 48.4866H54.0828C54.7421 48.4866 55.3389 48.7587 55.7698 49.1884L55.7787 49.1972C56.2096 49.6288 56.4811 50.2344 56.4811 50.8932V60.1518C56.4811 61.961 55.7439 63.6038 54.5485 64.7979C53.3632 65.9933 51.7116 66.7312 49.9018 66.7312C48.0919 66.7312 46.4491 65.9933 45.255 64.7979C44.0685 63.6038 43.3218 61.9617 43.3218 60.1518V50.8932C43.3218 50.2344 43.5945 49.6275 44.0337 49.1972V49.1884C44.4729 48.7587 45.0709 48.4866 45.7296 48.4866ZM53.9518 51.0166H45.8613V60.1518C45.8613 61.258 46.3093 62.2775 47.0471 63.0071C47.785 63.7449 48.7956 64.2012 49.9018 64.2012C51.018 64.2012 52.0274 63.7449 52.7652 63.0071C53.4942 62.2781 53.9518 61.258 53.9518 60.1518V51.0166Z" fill="white"/>
<path d="M49.9012 61.2492C50.5998 61.2492 51.1662 60.6829 51.1662 59.9842C51.1662 59.2856 50.5998 58.7192 49.9012 58.7192C49.2025 58.7192 48.6362 59.2856 48.6362 59.9842C48.6362 60.6829 49.2025 61.2492 49.9012 61.2492Z" fill="white"/>
</g>
<defs>
<clipPath id="clip0_488_904">
<rect width="81" height="81" fill="white" transform="translate(0.5 0.419434)"/>
</clipPath>
</defs>
</svg>
